<svg id="Layer_1" data-name="Layer 1" xmlns="http://www.w3.org/2000/svg" viewBox="0 0 489.19 416.88"><defs><style>.cls-1{fill:#e6e8ed;}.cls-2{fill:#705aed;}.cls-3{fill:#4299e2;}</style></defs><path class="cls-1" d="M393.69,125.22c-25.14,12.57-37,36.17-37,36.17s-13.54-50.27-58.65-58-44.76-11-44.76-11-22.92,81.85,69.25,107l-7.09,12.73s-68-17.9-79.78-21a1.74,1.74,0,0,0-.22-.05c-81-22.36-132.49-21.31-184.74,10.29C-10,238.09-9.06,335.74,46.85,370.06S171.41,407,246,384.08c0,0,25.86,37.94,43,27.55s6-19.67,3.22-46.69h0c29.14-16.45,41.43-35.19,51.41-53.35l0,0c22.82-35.64,28.74-103.92,28.74-103.92s91.84,15,101.75-82.9C474.17,124.74,418.82,112.65,393.69,125.22ZM147.1,327.6h0a8.37,8.37,0,0,1-7.77-5.17,13.83,13.83,0,0,0-25.64,0,8.34,8.34,0,0,1-7.76,5.17A8.43,8.43,0,0,1,98,316.16a30.73,30.73,0,0,1,57,0A8.42,8.42,0,0,1,147.1,327.6Z" transform="translate(-5.03 -41.19)"/><path class="cls-2" d="M493.72,376.54a6.4,6.4,0,0,0-4.24-5.27l-9.39-3.34a6.34,6.34,0,0,1-3.82-3.71c-.4-1.05-.83-2.09-1.29-3.11a6.33,6.33,0,0,1,.07-5.33l4.29-9a6.44,6.44,0,0,0-.74-6.73,73.1,73.1,0,0,0-12.18-12.18,6.44,6.44,0,0,0-6.73-.74l-9,4.29a6.36,6.36,0,0,1-5.33.08c-1-.46-2.05-.89-3.1-1.29a6.36,6.36,0,0,1-3.72-3.82L435.2,317a6.4,6.4,0,0,0-5.27-4.24,72.93,72.93,0,0,0-17.22,0,6.4,6.4,0,0,0-5.27,4.24l-3.34,9.4a6.33,6.33,0,0,1-3.72,3.82c-1.05.4-2.08.83-3.1,1.29a6.36,6.36,0,0,1-5.33-.08l-9-4.29a6.44,6.44,0,0,0-6.73.74A73.1,73.1,0,0,0,364,340.05a6.44,6.44,0,0,0-.74,6.73l4.29,9a6.36,6.36,0,0,1,.08,5.33c-.46,1-.89,2.05-1.29,3.1a6.36,6.36,0,0,1-3.82,3.72l-9.4,3.34a6.4,6.4,0,0,0-4.24,5.27,72.93,72.93,0,0,0,0,17.22,6.41,6.41,0,0,0,4.23,5.27l9.41,3.35a6.37,6.37,0,0,1,3.82,3.71c.4,1.05.83,2.08,1.29,3.1a6.36,6.36,0,0,1-.08,5.33l-4.29,9a6.44,6.44,0,0,0,.74,6.73,73.36,73.36,0,0,0,12.17,12.17,6.42,6.42,0,0,0,6.72.74l9-4.29a6.35,6.35,0,0,1,5.34-.07c1,.46,2,.89,3.1,1.29a6.37,6.37,0,0,1,3.71,3.82l3.34,9.41a6.39,6.39,0,0,0,5.27,4.23,72.93,72.93,0,0,0,17.22,0,6.39,6.39,0,0,0,5.27-4.23l3.34-9.41a6.37,6.37,0,0,1,3.71-3.82c1.05-.4,2.08-.83,3.1-1.29a6.35,6.35,0,0,1,5.34.07l9,4.29a6.42,6.42,0,0,0,6.72-.74,73.36,73.36,0,0,0,12.17-12.17,6.44,6.44,0,0,0,.74-6.73l-4.29-9a6.35,6.35,0,0,1-.07-5.34q.69-1.51,1.29-3.09a6.35,6.35,0,0,1,3.81-3.71l9.41-3.35a6.41,6.41,0,0,0,4.23-5.27,72.93,72.93,0,0,0,0-17.22Zm-65,29.34a22.06,22.06,0,0,1-28.13-28.13,21,21,0,0,1,13.31-13.32A22.06,22.06,0,0,1,442,392.57,21,21,0,0,1,428.73,405.88Z" transform="translate(-5.03 -41.19)"/><path class="cls-3" d="M193.43,86.37a4.5,4.5,0,0,0-3-3.7l-6.6-2.35a4.45,4.45,0,0,1-2.69-2.61c-.28-.73-.58-1.46-.9-2.18a4.47,4.47,0,0,1,.05-3.75l3-6.32a4.5,4.5,0,0,0-.52-4.73,51,51,0,0,0-8.56-8.56,4.51,4.51,0,0,0-4.72-.52l-6.33,3a4.47,4.47,0,0,1-3.75.06c-.71-.32-1.44-.62-2.18-.9a4.5,4.5,0,0,1-2.61-2.69l-2.34-6.61a4.55,4.55,0,0,0-3.71-3,52.46,52.46,0,0,0-12.1,0,4.55,4.55,0,0,0-3.71,3l-2.34,6.61a4.5,4.5,0,0,1-2.61,2.69c-.74.28-1.47.58-2.18.9a4.47,4.47,0,0,1-3.75-.06l-6.33-3a4.51,4.51,0,0,0-4.72.52,51,51,0,0,0-8.56,8.56,4.5,4.5,0,0,0-.52,4.73l3,6.32a4.47,4.47,0,0,1,0,3.75c-.32.72-.62,1.44-.9,2.18a4.45,4.45,0,0,1-2.69,2.61l-6.6,2.35a4.5,4.5,0,0,0-3,3.7,51.1,51.1,0,0,0,0,12.11,4.5,4.5,0,0,0,3,3.7l6.61,2.36a4.42,4.42,0,0,1,2.68,2.6c.28.74.58,1.46.9,2.18a4.45,4.45,0,0,1,0,3.74l-3,6.34a4.51,4.51,0,0,0,.52,4.73,51.23,51.23,0,0,0,8.55,8.55,4.51,4.51,0,0,0,4.72.52l6.34-3a4.5,4.5,0,0,1,3.75-.05c.72.33,1.45.63,2.18.91a4.5,4.5,0,0,1,2.61,2.69l2.34,6.6a4.51,4.51,0,0,0,3.71,3,51,51,0,0,0,12.1,0,4.51,4.51,0,0,0,3.71-3l2.34-6.6a4.5,4.5,0,0,1,2.61-2.69c.73-.28,1.46-.58,2.18-.91a4.5,4.5,0,0,1,3.75.05l6.34,3a4.51,4.51,0,0,0,4.72-.52,51.23,51.23,0,0,0,8.55-8.55,4.51,4.51,0,0,0,.52-4.73l-3-6.33a4.49,4.49,0,0,1-.05-3.76c.32-.71.62-1.44.9-2.17a4.48,4.48,0,0,1,2.69-2.61l6.6-2.35a4.5,4.5,0,0,0,3-3.7,52.55,52.55,0,0,0,0-12.11ZM147.76,107A15.5,15.5,0,0,1,128,87.22a14.71,14.71,0,0,1,9.35-9.35,15.5,15.5,0,0,1,19.77,19.77A14.75,14.75,0,0,1,147.76,107Z" transform="translate(-5.03 -41.19)"/></svg>