<?xml version="1.0" standalone="no"?>
<!DOCTYPE svg PUBLIC "-//W3C//DTD SVG 20010904//EN"
 "http://www.w3.org/TR/2001/REC-SVG-20010904/DTD/svg10.dtd">
<svg version="1.0" xmlns="http://www.w3.org/2000/svg"
 width="978.000000pt" height="978.000000pt" viewBox="0 0 978.000000 978.000000"
 preserveAspectRatio="xMidYMid meet">
<metadata>
Created by potrace 1.14, written by Peter Selinger 2001-2017
</metadata>
<g transform="translate(0.000000,978.000000) scale(0.100000,-0.100000)"
fill="#000000" stroke="none">
<path d="M2605 9036 c-26 -11 -52 -46 -61 -81 -1 -5 -9 -27 -18 -47 -9 -21
-14 -38 -10 -38 16 0 -44 -64 -71 -76 -65 -27 -84 -25 -172 17 -97 46 -124 46
-180 1 -54 -43 -140 -136 -155 -169 -18 -37 -16 -49 11 -108 13 -27 31 -72 41
-99 16 -48 16 -50 -7 -97 -30 -60 -32 -61 -126 -95 -95 -33 -116 -48 -126 -94
-7 -35 -6 -217 1 -254 8 -35 46 -62 120 -86 87 -29 105 -42 129 -95 26 -57 24
-80 -17 -164 -57 -119 -53 -132 74 -259 102 -101 125 -106 232 -52 81 41 112
44 170 19 50 -21 55 -29 90 -124 47 -127 57 -133 232 -130 145 1 161 11 196
106 42 117 48 125 96 147 57 27 76 27 134 0 26 -12 49 -23 52 -23 3 -1 22 -9
43 -19 51 -22 85 -11 153 52 84 76 134 143 134 176 0 27 -7 46 -60 159 -21 44
-20 57 8 120 18 40 66 77 101 77 6 0 34 11 64 24 78 34 89 57 89 185 1 177 -8
195 -119 232 -97 32 -114 44 -136 91 -28 59 -25 81 18 173 21 44 38 89 37 100
-2 36 -26 69 -111 152 -106 105 -121 109 -227 58 -88 -42 -134 -47 -185 -19
-46 26 -53 36 -84 129 -39 114 -48 119 -205 122 -85 1 -135 -2 -155 -11z m274
-733 c195 -92 239 -349 85 -499 -38 -36 -67 -52 -154 -81 -20 -7 -87 -6 -124
2 -104 21 -208 117 -234 215 -11 40 -8 157 4 181 7 15 10 29 7 33 -4 3 -1 6 5
6 7 0 12 6 12 14 0 20 69 94 105 115 96 52 201 57 294 14z"/>
<path d="M4959 8017 c-1 -5 -7 -34 -13 -67 -3 -19 -8 -46 -11 -60 -12 -57 -18
-164 -18 -310 0 -158 7 -243 29 -340 3 -14 7 -34 8 -45 21 -130 107 -353 183
-473 18 -29 33 -55 33 -57 0 -3 28 -41 62 -85 163 -214 379 -387 643 -515 44
-22 82 -40 85 -40 3 -1 21 -8 40 -17 52 -22 199 -75 250 -89 25 -7 49 -16 55
-21 5 -4 18 -8 28 -8 18 0 18 -2 4 -23 -8 -12 -38 -65 -67 -117 -29 -52 -56
-99 -60 -104 -5 -5 -29 -4 -57 4 -26 6 -55 13 -63 15 -42 10 -207 54 -220 59
-8 3 -26 8 -40 10 -14 3 -59 14 -100 26 -83 23 -86 24 -150 39 -25 7 -52 14
-60 16 -8 3 -44 12 -80 20 -36 9 -72 18 -80 22 -8 3 -24 8 -35 10 -41 8 -50
10 -65 16 -8 3 -28 9 -45 13 -16 4 -34 8 -40 10 -5 1 -68 18 -140 37 -71 19
-137 36 -145 39 -13 5 -128 34 -170 43 -8 2 -58 15 -110 30 -52 14 -102 27
-110 29 -8 2 -71 19 -140 37 -69 17 -131 32 -137 32 -7 0 -13 4 -13 9 0 5 -4
7 -9 3 -6 -3 -45 4 -88 15 -43 11 -94 23 -113 26 -19 3 -43 7 -52 10 -9 3 -27
7 -40 9 -204 41 -198 39 -288 55 -36 7 -78 13 -95 15 -16 2 -43 6 -60 9 -16 3
-52 8 -80 11 -27 3 -66 8 -85 10 -37 5 -98 12 -192 20 -198 19 -621 19 -727 0
-19 -3 -57 -8 -85 -10 -28 -3 -64 -7 -81 -9 -56 -9 -199 -34 -233 -41 -47 -10
-59 -13 -117 -29 -33 -9 -71 -19 -85 -22 -14 -3 -49 -14 -77 -24 -29 -11 -53
-17 -53 -14 0 4 -6 2 -12 -3 -7 -6 -34 -16 -60 -24 -27 -7 -48 -18 -48 -23 0
-5 -3 -7 -6 -4 -5 6 -73 -20 -179 -68 -22 -10 -42 -18 -45 -19 -7 -1 -217
-108 -260 -132 -19 -11 -57 -33 -85 -50 -27 -16 -58 -32 -67 -36 -10 -3 -18
-11 -18 -17 0 -5 -5 -10 -11 -10 -10 0 -95 -58 -125 -85 -7 -5 -29 -24 -50
-41 -68 -56 -167 -157 -229 -234 -33 -41 -63 -76 -67 -78 -5 -2 -8 -8 -8 -12
0 -7 -53 -89 -87 -135 -5 -6 -9 -17 -11 -25 -2 -8 -7 -17 -11 -20 -14 -10
-102 -201 -137 -297 -37 -103 -90 -294 -100 -366 -3 -23 -8 -53 -10 -67 -15
-106 -19 -169 -18 -340 0 -107 4 -215 7 -240 15 -114 20 -139 34 -200 8 -36
16 -72 18 -80 1 -8 8 -33 14 -55 6 -22 11 -43 11 -47 1 -12 58 -168 77 -208
35 -79 95 -197 119 -235 13 -22 30 -50 36 -62 6 -13 15 -23 20 -23 4 0 8 -5 8
-12 0 -6 18 -33 40 -59 22 -26 40 -51 40 -55 0 -4 53 -59 117 -123 136 -135
213 -191 423 -310 144 -82 472 -232 507 -232 5 0 16 -8 26 -16 9 -9 17 -13 17
-10 0 3 33 -6 72 -20 102 -35 344 -104 413 -117 17 -3 53 -10 80 -16 52 -12
83 -18 125 -24 14 -2 42 -7 63 -10 39 -6 75 -11 147 -21 168 -22 299 -29 560
-29 292 -1 454 9 685 39 11 2 43 6 70 9 28 4 61 9 75 11 14 3 41 7 60 9 19 3
60 10 90 16 60 12 118 22 138 23 6 0 12 4 12 9 0 5 4 7 9 4 5 -4 38 1 73 9 35
8 75 17 89 19 13 2 24 5 24 6 0 1 9 3 20 5 11 2 74 18 140 35 66 18 127 33
136 35 9 2 47 13 85 25 38 12 80 24 93 26 14 3 28 7 31 9 4 2 21 -15 38 -38
16 -23 38 -52 48 -64 11 -12 30 -37 44 -55 53 -71 269 -276 342 -325 107 -71
176 -97 263 -97 92 1 133 20 230 109 75 69 101 159 81 280 -4 28 -21 104 -38
170 -16 66 -32 129 -34 140 -2 11 -8 43 -14 70 -12 60 -20 110 -24 158 -4 36
-3 37 86 92 50 30 94 55 98 55 5 0 10 4 12 8 2 5 44 38 93 74 195 140 367 315
517 524 37 52 68 98 68 103 0 5 6 14 14 20 8 7 22 26 31 44 8 18 24 46 34 62
17 27 35 59 73 126 7 13 16 26 19 29 11 8 125 240 159 320 17 41 35 82 39 90
5 9 12 30 16 49 4 18 13 44 21 59 8 15 14 34 14 43 0 9 3 19 8 23 4 4 7 11 8
14 0 4 7 32 17 62 9 30 16 57 16 60 0 3 5 18 11 34 11 31 78 283 86 326 3 14
7 33 10 42 3 10 7 30 10 45 2 16 7 39 10 53 11 48 15 65 19 95 3 17 7 41 10
55 8 37 23 120 29 161 3 20 7 42 10 50 3 8 7 37 10 64 3 28 8 59 10 70 4 23
12 84 22 169 3 33 8 67 9 75 2 9 4 31 4 49 l1 33 73 -6 c161 -13 426 -3 533
19 12 2 39 7 59 10 21 4 75 16 119 27 45 12 88 22 96 24 62 13 285 113 375
168 140 86 279 207 381 332 65 80 148 213 194 310 23 50 46 97 51 107 22 43
90 266 105 343 2 11 10 54 19 95 8 41 17 98 20 125 3 28 7 62 10 77 6 30 -2
34 -74 43 -23 3 -46 7 -51 10 -4 2 -27 7 -51 9 -24 3 -53 7 -64 9 -11 3 -42 8
-68 11 -27 4 -57 9 -67 11 -11 2 -50 7 -87 10 -37 4 -81 8 -98 10 -215 23
-586 23 -705 0 -13 -3 -42 -7 -65 -10 -22 -4 -58 -11 -80 -17 -22 -6 -44 -11
-50 -13 -41 -9 -160 -59 -187 -77 -14 -10 -29 -18 -33 -18 -9 0 -121 -75 -196
-132 -91 -69 -319 -303 -319 -327 0 -5 -4 -11 -9 -13 -12 -4 -118 -161 -126
-188 l-7 -22 -12 24 c-6 12 -20 48 -30 78 -18 53 -118 264 -154 325 -10 17
-35 57 -57 89 -22 33 -44 66 -50 75 -5 9 -12 18 -15 21 -3 3 -27 32 -55 65
-138 165 -313 303 -487 383 -63 29 -215 80 -258 87 -19 2 -57 10 -85 16 -62
13 -80 16 -129 24 -21 3 -48 7 -60 10 -12 3 -32 7 -46 9 -14 3 -50 10 -80 16
-30 6 -66 13 -80 15 -105 17 -409 97 -435 115 -12 8 -45 20 -46 17z m-2388
-4093 c8 -5 23 -10 34 -11 26 -4 153 -66 184 -89 50 -38 133 -128 158 -169 59
-100 72 -158 49 -218 -34 -89 -131 -132 -218 -97 -42 18 -72 49 -103 109 -41
82 -114 134 -207 149 -114 18 -235 -44 -286 -149 -43 -86 -92 -121 -170 -121
-79 0 -162 79 -163 155 -1 47 7 71 43 140 76 145 265 282 418 304 19 3 37 7
38 8 8 7 210 -3 223 -11z"/>
<path d="M8267 3634 c-1 -1 -31 -4 -67 -7 -36 -3 -66 -6 -67 -7 -2 -1 -6 -3
-10 -4 -20 -4 -63 -40 -63 -52 0 -8 -4 -14 -8 -14 -5 0 -9 -6 -9 -12 -1 -14
-42 -130 -67 -190 -18 -41 -50 -67 -116 -91 -67 -25 -95 -21 -185 22 -152 73
-152 73 -193 66 -49 -8 -72 -25 -193 -145 -157 -156 -164 -178 -99 -316 22
-49 47 -101 55 -115 21 -38 12 -107 -23 -176 -23 -44 -34 -55 -77 -71 -16 -6
-43 -17 -60 -23 -16 -7 -39 -14 -49 -16 -11 -2 -24 -7 -30 -12 -6 -4 -24 -11
-39 -15 -33 -8 -87 -59 -88 -84 0 -9 -3 -28 -6 -42 -6 -29 -8 -212 -3 -285 5
-64 25 -108 60 -129 16 -9 71 -31 124 -50 126 -44 142 -56 177 -129 35 -74 36
-100 7 -164 -12 -26 -21 -51 -20 -55 1 -5 -2 -8 -8 -8 -5 0 -10 -5 -10 -10 0
-6 -11 -32 -24 -60 -34 -71 -30 -124 14 -181 39 -48 177 -189 187 -189 3 0 13
-9 23 -20 22 -25 77 -47 110 -44 14 1 73 25 131 53 58 27 118 52 132 55 27 5
119 -22 125 -36 2 -5 9 -8 16 -8 27 0 57 -50 95 -158 66 -186 68 -187 311
-187 246 0 250 2 315 192 42 121 56 140 123 171 84 37 119 33 250 -31 127 -62
149 -64 217 -20 51 33 203 185 239 240 40 59 36 91 -24 218 -63 132 -66 165
-25 250 26 53 37 63 85 87 30 15 63 27 73 27 9 1 25 5 35 10 9 5 31 14 47 21
110 45 119 65 118 274 0 89 -1 174 -4 189 -4 32 -55 97 -79 101 -8 2 -22 6
-30 9 -8 4 -42 16 -75 27 -33 12 -67 24 -75 27 -8 3 -21 7 -28 9 -35 7 -100
136 -96 191 1 16 16 58 33 92 17 33 28 61 24 61 -5 0 -3 4 2 8 19 13 48 92 48
127 0 45 -35 95 -142 202 -160 160 -183 167 -339 92 -59 -28 -120 -53 -137
-56 -16 -3 -32 -7 -34 -9 -2 -2 -9 0 -15 4 -6 5 -36 19 -66 31 -64 25 -78 43
-109 131 -13 36 -27 74 -31 85 -5 11 -11 30 -15 42 -16 57 -65 92 -140 99 -53
5 -195 11 -198 8z m143 -1029 c42 -7 143 -50 172 -74 118 -96 175 -210 179
-361 0 -14 -1 -34 -4 -45 -2 -11 -8 -38 -11 -59 -10 -53 -57 -143 -98 -186
-112 -119 -272 -167 -428 -127 -205 52 -344 236 -334 442 3 62 5 72 18 115 12
42 58 130 67 130 5 0 9 5 9 11 0 13 82 88 118 107 38 20 102 43 137 49 17 3
31 6 33 8 4 4 94 -2 142 -10z"/>
</g>
</svg>
