<?xml version="1.0" encoding="utf-8"?>
<!-- Generator: Adobe Illustrator 21.1.0, SVG Export Plug-In . SVG Version: 6.00 Build 0)  -->
<svg version="1.1" id="Layer_1" xmlns="http://www.w3.org/2000/svg" xmlns:xlink="http://www.w3.org/1999/xlink" x="0px" y="0px"
	 viewBox="0 0 297.1 96.4" style="enable-background:new 0 0 297.1 96.4;" xml:space="preserve">
<style type="text/css">
	.st0{fill:#d9d9d9;}
	.st1{fill:#25AF4B;}
</style>
<title>logo.tech</title>
<g id="Layer_2">
	<g id="Layer_1-2">
		<polygon class="st0" points="50.1,0 46.7,20.2 37,20.2 34.1,38.7 44.2,38.7 37.3,82.6 47.2,96.4 76.2,96.4 87.6,82.8 89.5,71.2 
			70.4,71.2 69.9,74.9 67.2,77.3 59.2,77.3 57.1,75.1 63,38.4 81.9,38.3 84.8,20.2 67.4,20.3 71.1,0 		"/>
		<path class="st0" d="M152.9,20.3l10.6,13l-3.4,20.5l-13.8,11.3l-30.9,0.3l-1.4,9.1l2.2,2.6l17.3-0.2l3.4-2.7v-3.5l20.3,0.2
			l-1.9,12.2l-11.9,13.3h-39.5L93.2,82.8l8-48.8l16.3-13.6L152.9,20.3z M141.3,46.8l1.8-7.8l-1.8-2.2h-17.8l-2.9,2.4l-1.8,10.5h20.5
			L141.3,46.8z"/>
		<polygon class="st0" points="211.3,96.4 171.4,96.4 160.7,82.6 168.9,33.5 184.6,20.3 222.4,20.3 231.6,33.6 229.7,45.8 
			208.6,45.3 208.9,41 207.5,38.7 189.7,38.3 186.2,41.2 180.7,75.7 182.8,78.3 200.4,78.3 203.5,75.6 204.3,71.1 225.2,70.9 
			223.5,82.9 		"/>
		<polygon class="st0" points="242.7,0.2 226.5,96.4 245.9,96.4 254.4,45.6 260.6,41.5 273.4,41.5 276.3,46.8 268.1,96.4 
			286.9,96.4 297.1,33.5 287,20.3 264.9,20.3 257.7,26.1 261.8,0.2 		"/>
		<circle class="st1" cx="16.1" cy="80.3" r="16.1"/>
	</g>
</g>
</svg>
