<svg id="Layer_1" data-name="Layer 1" xmlns="http://www.w3.org/2000/svg" viewBox="0 0 416.15 112.38"><defs><style>.cls-1{fill:#fff;}</style></defs><polygon class="cls-1" points="315.06 112.03 285.96 112.03 252.92 0 286.83 0 302.15 68.92 303.03 68.92 321.19 0 347.88 0 366.04 69.14 366.92 69.14 382.23 0 416.15 0 383.11 112.03 354.01 112.03 334.97 49.45 334.1 49.45 315.06 112.03"/><polygon class="cls-1" points="151.73 24.74 151.73 0.35 242.87 0.35 242.87 24.74 215.91 24.74 151.73 24.74"/><polygon class="cls-1" points="215.91 24.74 215.71 112.03 185.74 112.03 185.74 46.12 215.91 24.74"/><polygon class="cls-1" points="101.09 0.35 130.19 0.35 163.23 112.38 129.31 112.38 114 43.45 113.12 43.45 94.96 112.38 68.27 112.38 50.11 43.24 49.23 43.24 33.91 112.38 0 112.38 33.04 0.35 62.14 0.35 81.18 62.93 82.05 62.93 101.09 0.35"/></svg>