<svg id="Layer_1" data-name="Layer 1" xmlns="http://www.w3.org/2000/svg" viewBox="0 0 477.58 105.82"><defs><style>.cls-1{fill:#c9accd;}.cls-2{fill:#642566;}.cls-3{fill:#d6d6d2;}.cls-4{fill:#afaeae;}.cls-5{fill:#fff;}</style></defs><g id="Page-1"><g id="Nuvasive-Secondary-Logo"><polygon id="Shape" points="75.59 59.21 75.59 59.21 75.59 59.16 75.59 59.21"/><path id="Shape-2" class="cls-1" d="M15.18,8.44v7.68c44.65,5.71,56.67,32.1,60.15,43.13C66.31,20.72,31.75,10.36,15.18,8.44Z"/><path id="Shape-3" class="cls-2" d="M0,0V38.6l15.41,4.24a193.2,193.2,0,0,1-.49-26.79V8.37C31.48,10.27,66.09,20.6,75,59.16L90.33,63.6C78.09,4.47,20.68.45,0,0Z"/><path id="Shape-4" class="cls-3" d="M75.91,97v-7.9c-31.75-4.24-51.26-17.32-58.45-38.8C25.77,92.47,75.91,97,75.91,97Z"/><path id="Shape-5" class="cls-4" d="M75.64,66.08c.27,2.73.27,14.61.27,22.82v8.26S25.81,92.7,17.55,50.5L.85,46c11.83,61.21,90.2,59.78,90.2,59.78V70.46Z"/></g></g><polygon class="cls-4" points="159.06 71.29 126.82 36.88 126.82 71.29 119.84 71.29 119.84 29.37 128.54 29.37 160.65 63.78 160.65 29.37 167.67 29.37 167.67 71.29 159.06 71.29"/><path class="cls-4" d="M217.89,64.71a12.28,12.28,0,0,1-4.11,4,21.73,21.73,0,0,1-6.53,2.65,35.07,35.07,0,0,1-8.84,1,35.51,35.51,0,0,1-8.83-1A22.12,22.12,0,0,1,183,68.71a12.47,12.47,0,0,1-4.11-4,9.47,9.47,0,0,1-1.41-5.13V35.69h6.93V58.21A6.4,6.4,0,0,0,187.9,64a20.89,20.89,0,0,0,10.38,2,20.64,20.64,0,0,0,10.29-2,6.29,6.29,0,0,0,4-5.83V35.69h7V59.6a9.52,9.52,0,0,1-1.46,5.13"/><polygon class="cls-4" points="254.86 71.29 246.82 71.29 224.16 29.37 231.93 29.37 250.84 64.35 269.74 29.37 277.51 29.37 254.86 71.29"/><path class="cls-4" d="M294.16,41.65,285.6,57.37h17Zm16.13,29.64-4.2-7.64h-24L278,71.29H270.3l19.47-35.6h8.84l19.48,35.6Z"/><path class="cls-4" d="M350.43,41.74a32.5,32.5,0,0,0-7.86-.93c-7.91,0-11.88,1.42-11.88,4.42a2.32,2.32,0,0,0,1.15,2.16,9.26,9.26,0,0,0,3.31,1.11,50.68,50.68,0,0,0,5.21.48c2.08,0,4.42.31,7,.58a62.75,62.75,0,0,1,7.33,1.15,17.21,17.21,0,0,1,5.21,2A8.43,8.43,0,0,1,363,55.8a9.42,9.42,0,0,1,1,4.42,9.87,9.87,0,0,1-5.08,8.83,29,29,0,0,1-15,3.14,35.71,35.71,0,0,1-22.08-6.27l3.75-5a27.58,27.58,0,0,0,8.22,3.89,36.63,36.63,0,0,0,9.93,1.28,22.11,22.11,0,0,0,9.45-1.55c2.17-1,3.23-2.34,3.23-4.06s-1.37-3.27-4.06-4a27.15,27.15,0,0,0-7-.89,87.36,87.36,0,0,1-9.14-.53,21.1,21.1,0,0,1-9.76-2.82,7.22,7.22,0,0,1-3.14-6.45,9.05,9.05,0,0,1,5-8.13,27.62,27.62,0,0,1,14.17-3A33.59,33.59,0,0,1,362.09,40l-4.42,4.42a31.89,31.89,0,0,0-7.33-2.74"/><rect class="cls-4" x="372.69" y="35.69" width="6.98" height="35.64"/><polygon class="cls-4" points="413.41 71.29 405.37 71.29 385.59 35.69 393.36 35.69 409.39 65.28 425.42 35.69 433.15 35.69 413.41 71.29"/><polygon class="cls-4" points="439.12 71.29 439.12 35.69 476.26 35.69 476.26 41.92 446.05 41.92 446.05 49.69 467.07 49.69 467.07 55.96 446.05 55.96 446.05 65.06 477.58 65.06 477.58 71.29 439.12 71.29"/><path class="cls-5" d="M75.37,59.94Z"/></svg>