<?xml version="1.0" encoding="utf-8"?>
<!-- Generator: Adobe Illustrator 25.1.0, SVG Export Plug-In . SVG Version: 6.00 Build 0)  -->
<svg version="1.1" id="Layer_1" xmlns:serif="http://www.serif.com/"
	 xmlns="http://www.w3.org/2000/svg" xmlns:xlink="http://www.w3.org/1999/xlink" x="0px" y="0px" viewBox="0 0 882.6 163.3"
	 style="enable-background:new 0 0 882.6 163.3;" xml:space="preserve">
<style type="text/css">
	.st0{fill:#FFFFFF;}
	.st1{fill-rule:evenodd;clip-rule:evenodd;fill:url(#SVGID_1_);}
	.st2{fill-rule:evenodd;clip-rule:evenodd;fill:#FF9800;}
</style>
<g>
	<g>
		<path class="st0" d="M198.2,123v-21.7h10.5l2.4,11.1c0.2,0.8,0.4,1.3,0.6,1.6c0.3,0.3,0.8,0.6,1.5,0.8c4.3,1.2,8.3,1.8,12.2,1.8
			c0.1,0,0.2,0,0.4,0c12.2,0,18.4-4.6,18.4-13.9c0-2.4-0.5-4.4-1.4-6.2c-0.9-1.7-2.3-3.2-4.2-4.3c-1.9-1.1-3.7-2-5.4-2.7
			c-1.7-0.7-4-1.4-7-2.2c-8.1-2.4-13.6-4.5-16.5-6.4c-6.3-4.2-9.5-10.6-9.5-19.3c0-8.6,2.9-15.1,8.8-19.5c5.9-4.4,13.6-6.6,23-6.6
			c8.1,0,16.1,1.5,23.8,4.5v22.2l-10.6-1L243.4,51c-0.2-1.2-0.6-2-1.2-2.3c-2.2-1.3-5.8-2-10.9-2c-5.5,0-9.7,1.1-12.6,3.4
			c-2.9,2.3-4.3,5.4-4.3,9.4c0,1.8,0.4,3.5,1.1,4.9c0.7,1.5,1.6,2.7,2.5,3.6c0.9,0.9,2.3,1.8,4.2,2.7c1.9,0.9,3.5,1.6,4.8,2
			c1.3,0.4,3.2,1,5.7,1.8c3.3,1,5.8,1.8,7.5,2.4s3.9,1.6,6.7,3.1c2.7,1.5,4.8,3,6.2,4.7c1.4,1.6,2.7,3.9,3.8,6.7
			c1.1,2.8,1.7,6,1.7,9.5c0,9.2-3.1,16-9.3,20.4c-6.2,4.4-14.2,6.6-24.1,6.6c-5.2,0-10.3-0.5-15.5-1.5
			C204.4,125.3,200.6,124.2,198.2,123L198.2,123z"/>
		<path class="st0" d="M264.1,70.6l1.1-8h21.3v41.2c0,4.5,0.6,7.7,1.7,9.7c1.1,2,3.3,3,6.6,3c5.8,0,11.5-2.9,17.2-8.6V74.8
			c0-1-0.1-1.7-0.3-2c-0.2-0.3-0.8-0.6-1.7-0.7l-5.9-1.5l1.1-8h21v52.6c0,1.5,0.5,2.3,1.6,2.5l6.4,0.8v7.9h-19.5l-1.1-7.5l-0.4-0.1
			c-7.6,6.1-15.3,9.2-23.1,9.2c-6.5,0-11.1-1.7-13.8-5c-2.7-3.3-4-8.7-4-16v-32c0-1-0.1-1.7-0.3-2c-0.2-0.3-0.8-0.6-1.7-0.7
			L264.1,70.6L264.1,70.6z"/>
		<path class="st0" d="M335.7,41.1l1.2-7.9h21.5V68c7-4.4,13.7-6.6,20.2-6.6c0,0,0.1,0,0.2,0c7.2,0,13,2.5,17.2,7.6
			c4.2,5.1,6.4,12.9,6.4,23.5c0,12.2-2.3,21.1-7,26.8c-4.7,5.7-11.1,8.6-19.3,8.6c-7.4,0-13.5-2.4-18.4-7.3h-0.5l-0.7,5.8h-13.7
			c1-5.9,1.6-11.6,1.6-17.2c0-0.2,0-0.4,0-0.6V46.1c0-1.4-0.5-2.3-1.6-2.6L335.7,41.1L335.7,41.1z M358.5,109.3c5,4.7,10.1,7,15.3,7
			c9.2,0,13.8-7.7,13.8-23.1c0-6.6-1.1-11.6-3.4-15.1c-2.3-3.5-5.5-5.2-9.5-5.2c-5,0-10.4,2-16.1,6.1V109.3z"/>
		<path class="st0" d="M406.9,126.3v-7.8l7-1c0.8-0.1,1.3-0.3,1.6-0.6c0.3-0.3,0.4-1,0.4-1.8V46.1c0-1.4-0.5-2.3-1.6-2.6l-7-2.3
			l1.3-7.9h21.6v81.9c0,1,0.1,1.6,0.3,1.9c0.2,0.3,0.8,0.5,1.7,0.5l6.9,0.8v7.9H406.9L406.9,126.3z"/>
		<path class="st0" d="M446.1,126.3v-7.8l7.4-1c0.8-0.1,1.3-0.3,1.6-0.6c0.3-0.3,0.4-1,0.4-1.8V75.4c0-1.4-0.5-2.3-1.6-2.6l-6.8-2.3
			l1.3-7.9h21.3v52.6c0,1,0.1,1.6,0.3,1.9c0.2,0.3,0.8,0.5,1.7,0.5l7.3,0.8v7.9C478.9,126.3,446.1,126.3,446.1,126.3z M451.7,41.3
			c0-2.9,0.8-5.1,2.4-6.7c1.6-1.6,3.9-2.3,6.9-2.3c2.9,0,5.2,0.8,6.8,2.3c1.6,1.6,2.5,3.8,2.5,6.7c0,3-0.8,5.2-2.5,6.8
			c-1.6,1.6-3.9,2.4-6.8,2.4c-3,0-5.3-0.8-6.9-2.4C452.5,46.5,451.7,44.2,451.7,41.3z"/>
		<path class="st0" d="M485,70.5l1.3-7.9h18.2l1,6.9l0.5,0.1c7.2-5.5,14.2-8.3,21.1-8.3c7,0,11.9,2.5,14.7,7.4
			c7.6-4.9,14.8-7.4,21.4-7.4c6.5,0,11.1,1.8,13.9,5.4c2.8,3.6,4.2,8.8,4.2,15.7v32.7c0,1,0.1,1.6,0.3,1.9c0.2,0.3,0.8,0.5,1.7,0.5
			l6.7,0.8v7.9h-31.3v-7.8l6.4-0.8c1.3-0.2,2-1,1.9-2.5v-29c0-4.2-0.5-7.4-1.5-9.6c-1-2.2-3.1-3.3-6.2-3.3c-5,0-10.1,1.6-15.1,4.9
			c0.3,1.9,0.5,4.2,0.5,6.9v30c0,1,0.1,1.6,0.3,1.9c0.2,0.3,0.7,0.5,1.6,0.5l5.7,0.8v7.9H522v-7.8l6.5-0.8c0.8-0.1,1.3-0.3,1.6-0.7
			c0.3-0.4,0.4-1,0.4-1.8V86.9c0-2.2-0.1-4-0.2-5.3c-0.1-1.3-0.4-2.7-0.8-4.2c-0.4-1.4-1.2-2.5-2.3-3.2c-1.1-0.7-2.5-1.1-4.3-1.1
			c-4.9,0-10,2.1-15.3,6.3v35.6c0,1,0.1,1.6,0.3,1.9c0.2,0.3,0.8,0.5,1.7,0.5l6,0.8v7.9h-30v-7.8l5.9-1c0.8-0.1,1.3-0.3,1.6-0.6
			c0.3-0.3,0.4-1,0.4-1.8V75.4c0-1.4-0.5-2.3-1.6-2.6L485,70.5L485,70.5z"/>
		<path class="st0" d="M594.9,94.1c0-10.7,2.7-18.8,8.1-24.4c5.4-5.6,12.4-8.4,21-8.4c17.4,0,26.1,9.9,26.1,29.7
			c0,2.4-0.1,4.8-0.4,7.2h-39.8c0.3,6,1.8,10.6,4.4,13.6c2.6,3.1,6.8,4.6,12.6,4.6c5.2,0,11.2-1.4,18.1-4.3l4,9.9
			c-7.5,3.9-15.4,5.8-23.7,5.8C605,127.8,594.9,116.6,594.9,94.1L594.9,94.1z M610.1,88h25.9c0-10.6-4.1-15.9-12.2-15.9
			c-3.8,0-6.9,1.3-9.4,3.9C611.8,78.7,610.4,82.6,610.1,88z"/>
	</g>
	<g>
		<path class="st0" d="M786.6,126.4v-7.9l-7.8-1c-1.9-0.2-2-0.5-2-2.5V48.2c0-1.9,0.1-2.1,2-2.3l7.8-1v-7.9h-34v7.9l7.8,0.9
			c1.7,0.1,2,0.6,2,2.5v26.7h-39V48.2c0-1.9,0.1-2.1,2-2.3l8.3-1v-7.9h-34.5v7.9l7.8,0.9c1.7,0.1,2,0.6,2,2.5v66.9
			c0,1.9-0.2,2.2-2,2.5l-7.8,0.9v7.9h34.5v-7.9l-8.3-1c-1.9-0.2-2-0.5-2-2.5V85.7h39v29.4c0,1.9-0.2,2.2-2,2.5l-7.8,0.9v7.9H786.6z"
			/>
		<path class="st0" d="M863.2,138.1c-2.5,1-5.6,1.7-8.5,1.7c-5.8,0-7.7-2.7-7.7-7.8c0-1.7,0.1-3.2,0.4-4.8
			c23.3-3,35.2-20.9,35.2-47.2c0-24.8-12.6-44.7-41.1-44.7c-28.7,0-43.5,19.9-43.5,46.1c0,25.4,11.1,43.7,36.2,45.9
			c-0.2,2-0.5,4.3-0.5,6.4c0,10.3,4.4,16.8,17.9,16.8c5.2,0,10.7-1.6,14.5-3.6L863.2,138.1L863.2,138.1z M840.3,116
			c-16.5,0-27.4-10.9-27.4-34.7c0-22.7,11.7-34,28.3-34c16.3,0,26.4,11.1,26.4,33.8C867.6,105.6,856.6,116,840.3,116z"/>
	</g>
</g>
<g>
	
		<linearGradient id="SVGID_1_" gradientUnits="userSpaceOnUse" x1="53.4789" y1="597.7726" x2="55.2323" y2="597.7726" gradientTransform="matrix(6.14 -20.5307 -17.3781 -7.1031 10118.9717 5477.6865)">
		<stop  offset="0" style="stop-color:#FF9700"/>
		<stop  offset="0.53" style="stop-color:#F48E00"/>
		<stop  offset="1" style="stop-color:#D06F00"/>
	</linearGradient>
	<path class="st1" d="M125.7,82.1c0-1.9-1.4-3-3.2-2.5L3.2,117.5C1.4,118.1,0,120.1,0,122v38.7c0,1.9,1.4,3,3.2,2.5l119.4-37.9
		c1.7-0.6,3.2-2.6,3.2-4.5V82.1z"/>
	<path class="st2" d="M0,80.9c0,1.9,1.4,3.9,3.2,4.5l119.4,37.9c1.7,0.6,3.2-0.6,3.2-2.5V82.1c0-1.9-1.4-3.9-3.2-4.5L3.2,39.7
		C1.4,39.2,0,40.3,0,42.2C0,42.2,0,80.9,0,80.9z"/>
	<path class="st2" d="M125.7,2.6c0-1.9-1.4-3-3.2-2.5L3.2,38C1.4,38.6,0,40.6,0,42.5v38.7c0,1.9,1.4,3,3.2,2.5l119.4-37.9
		c1.7-0.6,3.2-2.6,3.2-4.5C125.7,41.3,125.7,2.6,125.7,2.6z"/>
</g>
</svg>
