<svg width="1200" height="300" viewBox="0 0 1200 300" fill="none" xmlns="http://www.w3.org/2000/svg">
  <mask id="mask0_30_1394" style="mask-type:alpha" maskUnits="userSpaceOnUse" x="0" y="0" width="300" height="300">
    <path fill-rule="evenodd" clip-rule="evenodd"
      d="M150 300C232.842 300 300 232.842 300 150C300 67.1572 232.842 0 150 0C67.1572 0 0 67.1572 0 150C0 232.842 67.1572 300 150 300Z"
      fill="black" />
  </mask>
  <g mask="url(#mask0_30_1394)">
    <path d="M347.941 -7.94165H-30.8828V223.234H347.941V-7.94165Z" fill="#F64942" />
    <path
      d="M66.0811 245.08C46.8611 207.406 65.4009 161.794 115.527 149.537C261.151 125.751 239.315 80.6466 283.919 64.5684C366.905 34.6544 345.921 138.773 329.229 167.881C312.537 196.99 352.069 252.214 295.409 256.23C259.743 258.758 249.347 238.662 186.486 264.61C154.157 277.954 152.266 275.002 118.705 264.178L89.9679 249.66L66.0811 245.08Z"
      fill="#F4CE45" />
    <path
      d="M142.019 -29.0018C103.308 -23.8332 -94.8219 17.8534 -108.946 24.3088L-74.4865 219.874C-53.8033 217.882 -15.4195 238.472 -15.4195 209.466C-15.4195 181.324 -9.7082 169.317 9.70827 135.589C38.2377 86.0298 101.39 86.856 123.391 85.7804C175.444 83.2358 232.384 66.5752 261.478 24.3234C361.178 -120.47 266.574 -63.3448 142.019 -29.0018Z"
      fill="#5B95BF" />
    <path
      d="M100.217 198.12C59.855 198.24 17.3024 210.685 -21.5566 225.281L-6.30242 390.517C99.4638 377.281 289.565 345.643 301.389 325.595C315.095 302.351 295.787 286.847 335.613 265.669C367.473 248.727 402.751 181.738 327.619 180.984C286.013 181.325 275.365 189.947 242.913 202.123C189.429 222.191 131.143 198.028 100.217 198.12Z"
      fill="#EF90A4" />
    <path fill-rule="evenodd" clip-rule="evenodd"
      d="M151.203 48.528C156.345 48.528 160.756 51.6268 162.692 56.0562C162.885 56.4982 163.315 56.7406 163.746 56.7406C164.054 56.7406 164.363 56.6156 164.586 56.3504C166.944 53.5336 170.463 51.8478 174.199 51.8478C175.271 51.8478 176.363 51.988 177.448 52.2776C182.424 53.6114 185.885 57.7572 186.602 62.548C186.687 63.121 187.198 63.493 187.726 63.493C187.941 63.493 188.161 63.4306 188.356 63.2948C190.476 61.8088 193.006 61.0146 195.58 61.0146C197.703 61.0146 199.855 61.5556 201.828 62.6944C206.29 65.2702 208.56 70.1708 208.012 74.9828C207.934 75.6626 208.502 76.225 209.138 76.225C209.262 76.225 209.388 76.2038 209.514 76.158C210.904 75.652 212.366 75.3974 213.826 75.3974C217.032 75.3974 220.236 76.6184 222.682 79.0662C226.324 82.7092 227.25 88.0304 225.476 92.536C225.188 93.2662 225.758 94.0648 226.522 94.0648C226.556 94.0648 226.588 94.0634 226.62 94.0602C226.988 94.0282 227.354 94.0114 227.72 94.0114C232.054 94.0114 236.266 96.2536 238.588 100.278C241.164 104.739 240.68 110.118 237.8 114.011C237.314 114.668 237.708 115.639 238.512 115.781C243.168 116.599 247.158 120.017 248.464 124.884C249.798 129.86 247.938 134.931 244.148 137.946C243.508 138.454 243.636 139.494 244.378 139.84C248.662 141.835 251.634 146.17 251.634 151.207C251.634 156.352 248.536 160.761 244.108 162.697C243.348 163.029 243.178 164.06 243.812 164.592C247.438 167.628 249.188 172.586 247.884 177.455C246.55 182.432 242.406 185.893 237.614 186.61C236.808 186.73 236.4 187.695 236.868 188.364C239.58 192.234 239.988 197.474 237.468 201.839C235.146 205.861 230.934 208.103 226.602 208.103C226.13 208.103 225.654 208.075 225.182 208.023C225.14 208.017 225.098 208.015 225.058 208.015C224.306 208.015 223.74 208.795 224.006 209.523C225.624 213.965 224.662 219.131 221.098 222.693C218.652 225.141 215.448 226.363 212.244 226.363C210.676 226.363 209.11 226.069 207.63 225.487C207.498 225.435 207.364 225.411 207.234 225.411C206.608 225.411 206.046 225.959 206.106 226.633C206.52 231.341 204.252 236.083 199.889 238.603C197.917 239.741 195.765 240.281 193.642 240.281C190.962 240.281 188.328 239.421 186.157 237.813C185.958 237.667 185.733 237.601 185.51 237.601C184.992 237.601 184.486 237.963 184.387 238.525C183.569 243.181 180.152 247.175 175.285 248.477C174.199 248.769 173.109 248.907 172.036 248.907C168.194 248.907 164.581 247.125 162.224 244.161C162.003 243.883 161.681 243.751 161.359 243.751C160.942 243.751 160.526 243.973 160.332 244.391C158.336 248.675 154.001 251.649 148.964 251.649C143.82 251.649 139.411 248.551 137.475 244.121C137.282 243.679 136.852 243.437 136.421 243.437C136.113 243.437 135.803 243.561 135.581 243.825C133.223 246.643 129.704 248.329 125.968 248.329C124.895 248.329 123.804 248.189 122.719 247.899C117.743 246.565 114.281 242.419 113.565 237.629C113.48 237.055 112.969 236.683 112.44 236.683C112.225 236.683 112.006 236.745 111.811 236.883C109.691 238.369 107.161 239.163 104.587 239.163C102.464 239.163 100.312 238.621 98.3378 237.481C93.8768 234.905 91.6074 230.005 92.1546 225.193C92.2324 224.513 91.6654 223.953 91.0282 223.953C90.9048 223.953 90.7784 223.973 90.6534 224.019C89.2634 224.525 87.8018 224.779 86.3416 224.779C83.135 224.779 79.9312 223.557 77.485 221.111C73.8424 217.467 72.9174 212.145 74.6914 207.639C74.9794 206.911 74.4094 206.111 73.6444 206.111C73.6108 206.111 73.5788 206.113 73.5468 206.115C73.1796 206.147 72.8138 206.165 72.4464 206.165C68.1134 206.165 63.9008 203.923 61.578 199.898C59.0024 195.436 59.487 190.057 62.3676 186.164C62.8522 185.507 62.459 184.537 61.6542 184.395C56.9996 183.576 53.008 180.159 51.7034 175.292C50.3698 170.315 52.2292 165.244 56.0196 162.231C56.6582 161.722 56.5302 160.682 55.7896 160.338C51.5052 158.342 48.5332 154.007 48.5332 148.968C48.5332 143.825 51.6302 139.414 56.0608 137.478C56.8182 137.146 56.989 136.116 56.355 135.585C52.7292 132.549 50.978 127.589 52.2826 122.721C53.6162 117.744 57.7616 114.282 62.552 113.566C63.3598 113.446 63.7666 112.481 63.2988 111.812C60.5858 107.942 60.179 102.701 62.6982 98.3388C65.021 94.3148 69.232 92.0742 73.5652 92.0742C74.0376 92.0742 74.5116 92.1 74.9856 92.155C75.0268 92.1596 75.0694 92.161 75.1106 92.161C75.8604 92.161 76.4258 91.3806 76.1606 90.6536C74.542 86.212 75.5052 81.0448 79.0672 77.4826C81.5148 75.0346 84.7184 73.8152 87.9236 73.8152C89.4904 73.8152 91.0572 74.1064 92.5372 74.6902C92.6682 74.742 92.8024 74.7648 92.9334 74.7648C93.5582 74.7648 94.1206 74.216 94.0612 73.5438C93.6466 68.8354 95.9146 64.0936 100.278 61.574C102.25 60.4354 104.402 59.8942 106.525 59.8942C109.205 59.8942 111.84 60.7554 114.01 62.3636C114.208 62.5084 114.434 62.5754 114.656 62.5754C115.175 62.5754 115.681 62.2142 115.78 61.6502C116.598 56.9952 120.015 53.0032 124.882 51.6984C125.968 51.4072 127.058 51.2686 128.131 51.2686C131.973 51.2686 135.585 53.052 137.943 56.015C138.164 56.294 138.486 56.4266 138.807 56.4266C139.225 56.4266 139.641 56.2026 139.836 55.7848C141.831 51.5002 146.166 48.528 151.203 48.528Z"
      fill="white" />
    <path fill-rule="evenodd" clip-rule="evenodd"
      d="M196.689 199.232C185.39 199.232 186.276 183.279 196.689 183.279C207.101 183.279 207.989 199.232 196.689 199.232ZM103.317 199.232C92.0176 199.232 92.9042 183.279 103.317 183.279C113.73 183.279 114.616 199.232 103.317 199.232ZM230.827 140.296H226.999C220.135 140.296 214.239 136.193 211.601 130.312C208.961 136.193 203.065 140.296 196.202 140.296C189.337 140.296 183.442 136.193 180.804 130.312C178.165 136.193 172.269 140.296 165.404 140.296C158.54 140.296 152.644 136.193 150.006 130.312C147.367 136.193 141.471 140.296 134.607 140.296C127.742 140.296 121.848 136.193 119.208 130.312C116.569 136.193 110.674 140.296 103.809 140.296C96.9444 140.296 91.0498 136.193 88.411 130.312C85.7722 136.193 79.8762 140.296 73.0112 140.296H69.2268C63.485 146.474 67.1272 151.693 81.3064 151.693V183.416C81.3064 213.23 115.637 228.138 149.968 228.138C184.299 228.138 218.629 213.23 218.629 183.416V151.693C232.821 151.693 236.525 146.474 230.827 140.296Z"
      fill="black" />
    <path fill-rule="evenodd" clip-rule="evenodd"
      d="M151.097 38.2373C146.07 38.2373 141.258 39.8127 137.262 42.5833C134.487 41.5019 131.501 40.9299 128.427 40.9299C126.307 40.9299 124.19 41.2099 122.132 41.7611C117.269 43.0639 113.024 45.8375 109.879 49.5561C108.989 49.4557 108.094 49.4047 107.197 49.4047C102.951 49.4047 98.7562 50.5309 95.0676 52.6605C90.7096 55.1765 87.328 58.9519 85.2524 63.3549C80.1576 64.1217 75.4566 66.4833 71.7456 70.1943C68.1814 73.7571 65.8914 78.2859 65.0288 83.0827C60.3654 85.1359 56.3742 88.6313 53.7564 93.1675C51.239 97.5269 50.1982 102.489 50.604 107.341C46.6444 110.511 43.6942 114.907 42.3254 120.012C41.0224 124.876 41.301 129.938 42.9484 134.521C39.9456 138.608 38.2324 143.619 38.2324 148.902C38.2324 153.937 39.8108 158.753 42.589 162.753C40.7454 167.478 40.3874 172.76 41.7548 177.867C43.0592 182.73 45.8312 186.972 49.5482 190.117C48.9912 195.158 50.0124 200.354 52.6558 204.932C55.1658 209.28 58.9382 212.674 63.3546 214.754C64.1228 219.766 66.453 224.518 70.1896 228.256C73.7494 231.814 78.2182 234.132 83.0748 234.992C85.1146 239.626 88.592 243.604 93.1612 246.242C96.8512 248.374 101.046 249.5 105.292 249.5C105.982 249.5 106.668 249.47 107.349 249.414C110.518 253.364 114.909 256.308 120.007 257.674C122.065 258.224 124.182 258.504 126.301 258.504C129.147 258.504 131.929 258.01 134.54 257.068C138.622 260.06 143.624 261.766 148.897 261.766C153.925 261.766 158.736 260.192 162.732 257.42C165.507 258.504 168.495 259.074 171.568 259.074C173.687 259.074 175.804 258.796 177.862 258.242C182.725 256.94 186.97 254.166 190.114 250.448C191.005 250.548 191.901 250.6 192.798 250.6C197.043 250.6 201.238 249.472 204.926 247.344C209.286 244.828 212.666 241.052 214.742 236.65C219.838 235.882 224.538 233.52 228.248 229.81C231.812 226.246 234.102 221.718 234.966 216.922C239.628 214.87 243.62 211.374 246.238 206.838C248.756 202.478 249.796 197.517 249.39 192.665C253.35 189.494 256.3 185.099 257.668 179.992C258.972 175.128 258.694 170.066 257.046 165.485C260.048 161.396 261.762 156.387 261.762 151.102C261.762 146.069 260.182 141.251 257.406 137.252C259.248 132.527 259.606 127.244 258.238 122.137C256.936 117.274 254.164 113.032 250.446 109.887C251.004 104.846 249.982 99.6505 247.338 95.0723C244.828 90.7233 241.056 87.3313 236.64 85.2497C235.872 80.2387 233.542 75.4869 229.804 71.7503C226.244 68.1905 221.776 65.8723 216.92 65.0127C214.882 60.3791 211.404 56.4001 206.834 53.7613C203.144 51.6317 198.95 50.5055 194.704 50.5055C194.014 50.5055 193.326 50.5339 192.645 50.5909C189.476 46.6417 185.085 43.6959 179.987 42.3301C177.93 41.7791 175.812 41.4989 173.694 41.4989C170.847 41.4989 168.065 41.9947 165.455 42.9367C161.372 39.9445 156.37 38.2373 151.097 38.2373ZM151.101 50.2167C156.154 50.2167 160.488 53.2613 162.39 57.6135C162.58 58.0477 163.002 58.2859 163.426 58.2859C163.729 58.2859 164.033 58.1631 164.251 57.9025C166.568 55.1349 170.026 53.4785 173.697 53.4785C174.751 53.4785 175.823 53.6163 176.889 53.9009C181.779 55.2113 185.18 59.2847 185.884 63.9917C185.968 64.5547 186.469 64.9201 186.989 64.9201C187.2 64.9201 187.416 64.8587 187.608 64.7255C189.691 63.2653 192.177 62.4851 194.706 62.4851C196.792 62.4851 198.907 63.0167 200.846 64.1355C205.23 66.6663 207.462 71.4811 206.922 76.2091C206.846 76.8769 207.402 77.4295 208.028 77.4295C208.15 77.4295 208.274 77.4087 208.398 77.3637C209.764 76.8665 211.2 76.6163 212.634 76.6163C215.784 76.6163 218.932 77.8159 221.336 80.2211C224.916 83.8003 225.824 89.0285 224.082 93.4553C223.798 94.1727 224.358 94.9575 225.11 94.9575C225.144 94.9575 225.174 94.9559 225.206 94.9529C225.568 94.9215 225.926 94.9049 226.288 94.9049C230.546 94.9049 234.684 97.1079 236.966 101.062C239.498 105.445 239.022 110.73 236.192 114.555C235.714 115.2 236.102 116.154 236.892 116.294C241.466 117.098 245.388 120.456 246.67 125.237C247.98 130.127 246.154 135.11 242.428 138.072C241.802 138.57 241.926 139.592 242.654 139.932C246.864 141.892 249.784 146.151 249.784 151.101C249.784 156.155 246.742 160.488 242.39 162.39C241.644 162.716 241.476 163.729 242.1 164.251C245.662 167.234 247.382 172.106 246.1 176.889C244.79 181.779 240.716 185.18 236.01 185.884C235.216 186.002 234.816 186.95 235.276 187.608C237.942 191.41 238.342 196.559 235.866 200.846C233.584 204.798 229.446 207.002 225.188 207.002C224.724 207.002 224.256 206.974 223.792 206.922C223.752 206.918 223.71 206.914 223.672 206.914C222.932 206.914 222.378 207.682 222.638 208.398C224.228 212.76 223.282 217.836 219.78 221.336C217.376 223.742 214.228 224.942 211.08 224.942C209.54 224.942 208 224.654 206.546 224.082C206.418 224.03 206.286 224.006 206.156 224.006C205.542 224.006 204.99 224.546 205.048 225.208C205.456 229.832 203.228 234.492 198.94 236.966C197.002 238.086 194.887 238.618 192.801 238.618C190.169 238.618 187.581 237.772 185.447 236.192C185.252 236.048 185.03 235.982 184.812 235.982C184.302 235.982 183.805 236.34 183.708 236.892C182.904 241.466 179.546 245.39 174.764 246.67C173.697 246.956 172.626 247.092 171.571 247.092C167.796 247.092 164.247 245.34 161.93 242.428C161.713 242.156 161.397 242.026 161.081 242.026C160.67 242.026 160.262 242.244 160.071 242.654C158.11 246.864 153.85 249.784 148.901 249.784C143.846 249.784 139.514 246.742 137.612 242.39C137.422 241.956 136.999 241.718 136.576 241.718C136.273 241.718 135.969 241.838 135.75 242.1C133.434 244.866 129.976 246.524 126.305 246.524C125.251 246.524 124.179 246.386 123.112 246.1C118.223 244.79 114.822 240.716 114.118 236.012C114.034 235.446 113.532 235.082 113.013 235.082C112.801 235.082 112.586 235.142 112.394 235.278C110.311 236.738 107.825 237.518 105.295 237.518C103.209 237.518 101.095 236.986 99.1552 235.866C94.7718 233.336 92.5418 228.52 93.0796 223.792C93.156 223.124 92.5988 222.574 91.9728 222.574C91.8516 222.574 91.7272 222.592 91.6044 222.638C90.2386 223.136 88.8024 223.386 87.3678 223.386C84.2168 223.386 81.0688 222.186 78.6652 219.782C75.086 216.202 74.1768 210.974 75.92 206.546C76.2032 205.83 75.643 205.044 74.8912 205.044C74.8584 205.044 74.8268 205.046 74.7954 205.048C74.4344 205.08 74.075 205.096 73.7142 205.096C69.4564 205.096 65.3172 202.894 63.0348 198.94C60.5038 194.557 60.98 189.271 63.8106 185.447C64.2868 184.801 63.9004 183.847 63.1096 183.708C58.536 182.904 54.6138 179.546 53.3318 174.764C52.0214 169.875 53.8486 164.892 57.573 161.931C58.2006 161.431 58.0748 160.41 57.347 160.071C53.1372 158.111 50.2168 153.852 50.2168 148.901C50.2168 143.848 53.26 139.514 57.6136 137.612C58.3578 137.286 58.5256 136.273 57.9026 135.752C54.3398 132.769 52.619 127.896 53.901 123.112C55.2114 118.223 59.2848 114.822 63.9918 114.118C64.7854 113.999 65.1854 113.051 64.7256 112.394C62.0598 108.592 61.66 103.443 64.1356 99.1567C66.4178 95.2031 70.5558 93.0015 74.8134 93.0015C75.2776 93.0015 75.7434 93.0271 76.2092 93.0809C76.2496 93.0855 76.2914 93.0869 76.332 93.0869C77.0688 93.0869 77.6244 92.3201 77.3638 91.6057C75.7734 87.2419 76.7198 82.1649 80.2196 78.6651C82.6248 76.2599 85.7728 75.0619 88.9222 75.0619C90.4618 75.0619 92.0012 75.3479 93.4554 75.9215C93.5842 75.9725 93.716 75.9949 93.8448 75.9949C94.4588 75.9949 95.0114 75.4557 94.953 74.7953C94.5456 70.1693 96.774 65.5103 101.062 63.0347C103 61.9159 105.114 61.3843 107.2 61.3843C109.833 61.3843 112.422 62.2305 114.555 63.8105C114.75 63.9527 114.971 64.0187 115.19 64.0187C115.699 64.0187 116.196 63.6637 116.294 63.1095C117.098 58.5359 120.456 54.6137 125.237 53.3317C126.305 53.0457 127.376 52.9095 128.43 52.9095C132.206 52.9095 135.755 54.6617 138.072 57.5729C138.289 57.8471 138.605 57.9773 138.921 57.9773C139.331 57.9773 139.74 57.7571 139.932 57.3469C141.892 53.1371 146.151 50.2167 151.101 50.2167Z"
      fill="black" />
  </g>
  <path fill-rule="evenodd" clip-rule="evenodd"
    d="M443.494 207.297C445.206 209.074 446.061 211.358 446.061 214.15C446.061 216.942 444.932 219.226 442.673 221.003C440.414 222.779 437.504 223.668 433.944 223.668H430.247C423.538 223.668 417.411 222.05 411.866 218.814C406.321 215.578 401.974 211.168 398.825 205.584C395.676 200 394.101 193.718 394.101 186.739V139.721H384.654C381.778 139.721 379.451 138.96 377.671 137.437C375.891 135.914 375.001 134.01 375.001 131.726C375.001 129.188 375.891 127.158 377.671 125.635C379.451 124.112 381.778 123.35 384.654 123.35H394.101V95.9392C394.101 93.1473 395.059 90.8631 396.976 89.0864C398.893 87.3098 401.358 86.4215 404.37 86.4215C407.382 86.4215 409.847 87.3098 411.763 89.0864C413.68 90.8631 414.639 93.1473 414.639 95.9392V123.35H432.096C434.971 123.35 437.299 124.112 439.079 125.635C440.859 127.158 441.749 129.188 441.749 131.726C441.749 134.01 440.859 135.914 439.079 137.437C437.299 138.96 434.971 139.721 432.096 139.721H414.639V186.739C414.639 191.815 416.145 196.066 419.157 199.493C422.169 202.919 425.866 204.632 430.247 204.632H437.23C439.695 204.632 441.783 205.52 443.494 207.297ZM549.263 125.73C557.821 130.362 564.598 136.707 569.596 144.765C574.593 152.824 577.092 161.802 577.092 171.701V214.15C577.092 216.942 576.099 219.258 574.114 221.098C572.129 222.938 569.63 223.858 566.618 223.858C563.606 223.858 561.107 222.938 559.122 221.098C557.136 219.258 556.144 216.942 556.144 214.15V207.107C551.351 212.564 545.533 216.815 538.687 219.861C531.841 222.906 524.447 224.429 516.506 224.429C506.648 224.429 497.714 222.145 489.704 217.576C481.694 213.008 475.396 206.694 470.809 198.636C466.223 190.578 463.929 181.599 463.929 171.701C463.929 161.802 466.394 152.824 471.323 144.765C476.252 136.707 483.064 130.362 491.758 125.73C500.452 121.098 510.071 118.782 520.613 118.782C531.156 118.782 540.706 121.098 549.263 125.73ZM539.2 202.633C544.745 199.524 549.092 195.273 552.241 189.88C555.391 184.486 556.965 178.427 556.965 171.701C556.965 164.975 555.391 158.883 552.241 153.427C549.092 147.97 544.745 143.687 539.2 140.578C533.655 137.468 527.459 135.914 520.613 135.914C513.767 135.914 507.572 137.468 502.027 140.578C496.482 143.687 492.1 147.97 488.883 153.427C485.665 158.883 484.056 164.975 484.056 171.701C484.056 178.427 485.665 184.486 488.883 189.88C492.1 195.273 496.482 199.524 502.027 202.633C507.572 205.743 513.767 207.297 520.613 207.297C527.459 207.297 533.655 205.743 539.2 202.633ZM620.837 220.432C612.622 217.767 606.187 214.277 601.532 209.962C599.752 208.312 598.862 206.345 598.862 204.061C598.862 201.015 600.231 198.541 602.97 196.637C605.571 194.861 607.967 193.972 610.158 193.972C612.896 193.972 615.498 195.114 617.962 197.399C620.564 200.064 624.466 202.38 629.669 204.347C634.872 206.314 640.417 207.297 646.304 207.297C654.109 207.297 660.167 206.092 664.48 203.68C668.793 201.269 670.949 198.033 670.949 193.972C670.949 190.038 668.827 186.77 664.583 184.169C660.338 181.567 653.15 179.378 643.018 177.602C616.73 172.906 603.586 162.881 603.586 147.526C603.586 141.307 605.571 136.041 609.542 131.726C613.512 127.411 618.715 124.175 625.15 122.018C631.586 119.861 638.431 118.782 645.688 118.782C654.588 118.782 662.563 120.114 669.615 122.779C676.666 125.444 682.245 129.125 686.353 133.82C688.133 135.85 689.023 137.881 689.023 139.911C689.023 142.069 687.859 144.036 685.531 145.812C684.025 146.828 682.108 147.335 679.781 147.335C676.221 147.335 673.003 146.13 670.128 143.718C666.705 140.8 663.077 138.737 659.243 137.532C655.409 136.326 650.754 135.724 645.277 135.724C638.979 135.724 633.81 136.707 629.771 138.674C625.732 140.641 623.713 143.401 623.713 146.954C623.713 149.493 624.397 151.618 625.766 153.331C627.136 155.045 629.737 156.631 633.571 158.09C637.405 159.55 642.95 160.977 650.206 162.373C665.13 165.165 675.707 169.036 681.937 173.985C688.167 178.934 691.282 185.343 691.282 193.211C691.282 199.048 689.57 204.347 686.147 209.105C682.724 213.864 677.693 217.608 671.052 220.336C664.412 223.065 656.436 224.429 647.126 224.429C637.815 224.429 629.053 223.097 620.837 220.432ZM802.802 215.673C802.802 218.465 801.569 220.812 799.105 222.716C797.051 224.239 794.86 225 792.533 225C789.521 225 787.056 223.858 785.139 221.574L746.118 176.84L735.849 185.216V214.34C735.849 217.132 734.924 219.385 733.076 221.098C731.228 222.811 728.797 223.668 725.785 223.668C722.773 223.668 720.343 222.811 718.494 221.098C716.646 219.385 715.722 217.132 715.722 214.34V84.3277C715.722 81.5358 716.646 79.2832 718.494 77.57C720.343 75.8568 722.773 75.0002 725.785 75.0002C728.797 75.0002 731.228 75.8568 733.076 77.57C734.924 79.2832 735.849 81.5358 735.849 84.3277V161.802L785.755 120.495C787.535 118.845 789.657 118.021 792.122 118.021C794.997 118.021 797.325 119.036 799.105 121.066C800.885 122.716 801.775 124.683 801.775 126.967C801.775 129.632 800.679 131.79 798.489 133.439L760.699 164.658L800.542 209.962C802.049 211.485 802.802 213.389 802.802 215.673ZM899.842 125.73C908.4 130.362 915.177 136.707 920.175 144.765C925.172 152.824 927.671 161.802 927.671 171.701V214.15C927.671 216.942 926.678 219.258 924.693 221.098C922.708 222.938 920.209 223.858 917.197 223.858C914.184 223.858 911.686 222.938 909.7 221.098C907.715 219.258 906.722 216.942 906.722 214.15V207.107C901.93 212.564 896.111 216.815 889.265 219.861C882.419 222.906 875.026 224.429 867.085 224.429C857.227 224.429 848.293 222.145 840.283 217.576C832.273 213.008 825.975 206.694 821.388 198.636C816.801 190.578 814.508 181.599 814.508 171.701C814.508 161.802 816.973 152.824 821.902 144.765C826.831 136.707 833.642 130.362 842.337 125.73C851.031 121.098 860.649 118.782 871.192 118.782C881.735 118.782 891.285 121.098 899.842 125.73ZM889.779 202.633C895.324 199.524 899.671 195.273 902.82 189.88C905.969 184.486 907.544 178.427 907.544 171.701C907.544 164.975 905.969 158.883 902.82 153.427C899.671 147.97 895.324 143.687 889.779 140.578C884.234 137.468 878.038 135.914 871.192 135.914C864.346 135.914 858.151 137.468 852.606 140.578C847.06 143.687 842.679 147.97 839.461 153.427C836.244 158.883 834.635 164.975 834.635 171.701C834.635 178.427 836.244 184.486 839.461 189.88C842.679 195.273 847.06 199.524 852.606 202.633C858.151 205.743 864.346 207.297 871.192 207.297C878.038 207.297 884.234 205.743 889.779 202.633ZM1061.37 77.6652C1063.29 79.4419 1064.25 81.7896 1064.25 84.7084V171.51C1064.25 181.409 1061.75 190.387 1056.75 198.446C1051.75 206.504 1044.98 212.849 1036.42 217.481C1027.86 222.113 1018.31 224.429 1007.77 224.429C997.225 224.429 987.607 222.113 978.912 217.481C970.218 212.849 963.407 206.504 958.477 198.446C953.548 190.387 951.084 181.409 951.084 171.51C951.084 161.612 953.377 152.634 957.964 144.575C962.551 136.517 968.849 130.203 976.859 125.635C984.868 121.066 993.802 118.782 1003.66 118.782C1011.6 118.782 1019 120.305 1025.84 123.351C1032.69 126.396 1038.51 130.647 1043.3 136.104V84.7084C1043.3 81.7896 1044.29 79.4419 1046.28 77.6652C1048.26 75.8886 1050.76 75.0002 1053.77 75.0002C1056.92 75.0002 1059.45 75.8886 1061.37 77.6652ZM1026.35 202.633C1031.9 199.524 1036.25 195.241 1039.4 189.784C1042.55 184.328 1044.12 178.236 1044.12 171.51C1044.12 164.784 1042.55 158.725 1039.4 153.331C1036.25 147.938 1031.9 143.687 1026.35 140.578C1020.81 137.468 1014.61 135.914 1007.77 135.914C1000.92 135.914 994.727 137.468 989.181 140.578C983.636 143.687 979.255 147.938 976.037 153.331C972.82 158.725 971.211 164.784 971.211 171.51C971.211 178.236 972.82 184.328 976.037 189.784C979.255 195.241 983.636 199.524 989.181 202.633C994.727 205.743 1000.92 207.297 1007.77 207.297C1014.61 207.297 1020.81 205.743 1026.35 202.633ZM1197.33 175.984C1195.55 177.57 1193.29 178.363 1190.55 178.363H1112.51C1114.02 187.246 1118.36 194.416 1125.55 199.873C1132.74 205.33 1141.54 208.059 1151.94 208.059C1156.05 208.059 1160.33 207.361 1164.78 205.965C1169.23 204.569 1172.89 202.856 1175.77 200.825C1177.68 199.429 1179.94 198.731 1182.54 198.731C1185.15 198.731 1187.2 199.366 1188.71 200.635C1191.17 202.538 1192.4 204.696 1192.4 207.107C1192.4 209.391 1191.31 211.295 1189.12 212.817C1184.46 216.244 1178.68 219.036 1171.76 221.193C1164.85 223.35 1158.24 224.429 1151.94 224.429C1140.72 224.429 1130.65 222.177 1121.75 217.671C1112.85 213.166 1105.9 206.916 1100.91 198.921C1095.91 190.927 1093.41 181.853 1093.41 171.701C1093.41 161.548 1095.77 152.443 1100.5 144.385C1105.22 136.326 1111.79 130.045 1120.21 125.54C1128.63 121.034 1138.18 118.782 1148.86 118.782C1159.4 118.782 1168.51 120.939 1176.18 125.254C1183.84 129.569 1189.73 135.597 1193.84 143.338C1197.95 151.079 1200 159.962 1200 169.987C1200 172.399 1199.11 174.397 1197.33 175.984ZM1124.52 142.767C1118.3 147.843 1114.36 154.632 1112.72 163.135H1181.11C1179.87 154.632 1176.45 147.843 1170.84 142.767C1165.22 137.691 1157.9 135.153 1148.86 135.153C1138.87 135.153 1130.75 137.691 1124.52 142.767Z"
    fill="white" />
</svg>