<?xml version="1.0" encoding="utf-8"?>
<!-- Generator: Adobe Illustrator 25.1.0, SVG Export Plug-In . SVG Version: 6.00 Build 0)  -->
<svg version="1.1" id="Layer_1" xmlns="http://www.w3.org/2000/svg" xmlns:xlink="http://www.w3.org/1999/xlink" x="0px" y="0px"
	 viewBox="0 0 220 57" style="enable-background:new 0 0 220 57;" xml:space="preserve">
<style type="text/css">
	.st0{fill-rule:evenodd;clip-rule:evenodd;fill:#FFFFFF;}
	.st1{fill-rule:evenodd;clip-rule:evenodd;fill:#FFCC00;}
</style>
<g>
	<path class="st0" d="M130.8,47.4l10.6-28.6H137l-3.6,10.4c-0.6,1.8-1.5,4.8-1.9,6.1c-0.2-1.2-1.2-4.3-1.9-6.2l-3.5-10.4h-4.6
		l7.8,20.8l-3.1,7.9H130.8z"/>
	<polygon class="st0" points="113.2,12.8 113.2,40 117.3,40 117.3,10.6 	"/>
	<path class="st0" d="M85.3,11.7v16.4c0,7.8,3.6,12.3,10.6,12.3c7,0,10.8-4.3,10.8-12.2V11.7h-4.2v16.5c0,5.2-2.1,7.9-6.5,7.9
		c-4.2,0-6.4-2.9-6.4-8.2V11.7H85.3z"/>
	<path class="st0" d="M200.7,29c0-5.7-2.9-10.6-8.9-10.6c-5.5,0-9.3,3.9-9.3,11c0,7,4.2,11,9.1,11c3.2,0,5.4-1,7.3-2.8l-2.5-2.7
		c-1.4,1-2.8,1.7-4.6,1.7c-2.6,0-4.9-1.7-5.3-5.8h14C200.7,30.4,200.7,29.7,200.7,29z M186.7,27.4c0.4-3.4,2.1-5.3,4.8-5.3
		c3.4,0,4.8,2.4,5,5.3H186.7z"/>
	<path class="st0" d="M151.5,36.7c-2,0-4.2-0.7-6.2-2.1l-1.9,3.1c2.1,1.6,5.2,2.7,8.1,2.7c4.2,0,7.9-1.6,7.9-6.2
		c0-4-2.4-5.3-7.1-7.1c-3.2-1.2-3.9-2-3.9-3.1c0-1.1,0.9-1.9,2.9-1.9c2,0,3.7,0.6,5.5,1.8l1.8-3.2c-1.9-1.4-4.5-2.3-7.2-2.3
		c-4.2,0-7.2,2-7.2,5.8c0,3.3,1.7,4.9,6.2,6.7c3.1,1.2,4.9,1.9,4.9,3.5C155.4,35.8,154.1,36.7,151.5,36.7z"/>
	<path class="st0" d="M212.9,27.1c-3.2-1.2-3.9-2-3.9-3.1c0-1.1,0.9-1.9,2.9-1.9c2,0,3.7,0.6,5.5,1.8l1.8-3.2
		c-1.9-1.4-4.5-2.3-7.2-2.3c-4.2,0-7.2,2-7.2,5.8c0,3.3,1.7,4.9,6.2,6.7c3.1,1.2,4.9,1.9,4.9,3.5c0,1.5-1.2,2.3-3.9,2.3
		c-2,0-4.2-0.7-6.2-2.1l-1.9,3.1c2.1,1.6,5.2,2.7,8.1,2.7c4.2,0,7.9-1.6,7.9-6.2C220,30.2,217.6,28.9,212.9,27.1z"/>
	<path class="st0" d="M170.9,36.7c-2,0-4.2-0.7-6.2-2.1l-1.9,3.1c2.1,1.6,5.2,2.7,8.1,2.7c4.2,0,7.9-1.6,7.9-6.2
		c0-4-2.4-5.3-7.1-7.1c-3.2-1.2-3.9-2-3.9-3.1c0-1.1,0.9-1.9,2.9-1.9c2,0,3.7,0.6,5.5,1.8l1.8-3.2c-1.9-1.4-4.5-2.3-7.2-2.3
		c-4.2,0-7.2,2-7.2,5.8c0,3.3,1.7,4.9,6.2,6.7c3.1,1.2,4.9,1.9,4.9,3.5C174.8,35.8,173.6,36.7,170.9,36.7z"/>
</g>
<g>
	<path class="st1" d="M28.8,45.9c0,0.2,0.5,1.8,0.9,2.6c0.1,0.1,0.4,0.9,0.9,1.5c0.4,0.5,0.8,0.5,1.2,0c0.5-0.6,0.8-1.4,0.9-1.5
		c0.4-0.8,0.8-2.4,0.9-2.6c0.5-2,0.9-4.1,1.1-6.2c0.1-1.5,0.1-2.9-0.2-4.3c-0.2-0.6-0.4-1.2-0.8-1.7c-0.4-0.7-1.2-1.2-2.4-1.2
		c-1.2,0-2,0.6-2.4,1.2c-0.4,0.5-0.6,1.1-0.8,1.7c-0.3,0.9-0.3,2.9-0.2,4.3C27.9,41.8,28.2,43.9,28.8,45.9z"/>
	<path class="st1" d="M25.6,12.9c-0.3,1.8,0,3.7,0.8,5.4c0.5,1.1,1.3,2.1,1.7,3.2c0,0.1,0.4,0.8,0.5,2.2c0.2-0.1,0.9-0.8,2.5-0.8
		c1.6,0,2.3,0.7,2.5,0.8c0-1.3,0.4-2.1,0.5-2.2c0.5-1.2,1.3-2.2,1.8-3.4c0.9-1.8,1-3.8,0.7-5.7c-0.4-1.8-1.4-3.4-2.2-5.2l0-0.1
		c-0.2-0.3-1-1.8-0.9-3.6h-1.8V14l0.1,0c0.7,0.2,1.1,0.9,1.1,1.6c0,0.9-0.8,1.7-1.7,1.7c-0.9,0-1.7-0.7-1.7-1.7
		c0-0.8,0.5-1.4,1.3-1.6V3.6h-1.8l0,0.2c0,1.8-0.9,3.3-0.9,3.4C27.1,9.1,26,10.9,25.6,12.9z"/>
	<path class="st1" d="M28.4,30.9c-0.5-0.5-0.9-1.1-1-1.8l-0.6,0l-0.6,0c-6,0-14.7,0.9-19.7,2.7c-3.1,1.1-4.6,3.3-5,4.9
		c-0.9,3.3,3.2,7.2,4.1,8.6c1.3,1.9,2.8,4.4,3.5,6.4c1,2.4,2.4,4.5,4.8,5.2c0.2,0,1.5,0.4,3.1-0.4c3.1-1.5,4.3-4.4,5-5.8
		c0.8-1.6,1.5-5.2,1.5-5.8c0.5-2.7,1.6-7.3,2.1-8.8C26.4,33.4,27.4,31.4,28.4,30.9z"/>
	<path class="st1" d="M38.8,44.8c0,0.6,0.8,4.2,1.5,5.8c0.6,1.4,1.9,4.3,5,5.8c1.6,0.7,2.9,0.4,3.1,0.4c2.5-0.6,3.9-2.8,4.8-5.2
		c0.7-2,2.1-4.5,3.5-6.4c0.9-1.4,4.9-5.3,4.1-8.6c-0.4-1.6-1.9-3.8-5-4.9c-5.4-1.9-14.9-2.7-20.9-2.7c-0.1,0.7-0.6,1.3-1,1.8
		c1,0.4,2,2.5,2.8,5.1C37.1,37.5,38.3,42.2,38.8,44.8z"/>
	<path class="st1" d="M60.9,0.4C60.4,0.1,59.8,0,59.2,0c-0.9,0.1-1.8,0.4-2.7,0.7c-2.7,1.1-5.2,2.6-7.5,4.5c-5.4,4.4-8.3,9-9.3,10.5
		c-1.2,1.9-3.1,5-3.4,5.8C36,22,35,24.2,34.5,25.4c0.5,0.7,0.7,1.6,0.6,2.4c5.1-0.1,10.3-0.4,15.4-0.7c3-0.2,5.8-0.7,7.2-1.2
		c1.9-0.8,2.7-2.3,2.9-4.7c0.1-1.3,0.1-4.3,0.2-5.6c0.1-2.3,0.9-6,1.3-9.7c0.1-1.3,0.1-2.5-0.2-3.7C61.8,1.4,61.5,0.7,60.9,0.4z"/>
	<path class="st1" d="M30.3,30.1c0.3,0.2,0.6,0.4,0.9,0.4s0.7-0.2,0.9-0.4c0.4-0.3,0.8-1,1-1.5c0.4-1.1,0.2-2,0-2.4
		c-0.3-0.6-0.9-1.2-1.9-1.2c-0.9,0-1.6,0.6-1.9,1.2c-0.2,0.3-0.4,1.2,0,2.4C29.5,29.1,29.9,29.8,30.3,30.1z"/>
	<path class="st1" d="M13.3,5.2C11,3.3,8.5,1.8,5.8,0.7C4.9,0.4,4,0.1,3.1,0L2.9,0L2.6,0C2.2,0,1.8,0.1,1.4,0.4
		c-0.6,0.4-1,1.1-1.1,1.7C0,3.3,0,4.6,0.1,5.8c0.4,3.7,1.1,7.4,1.3,9.7c0.1,1.3,0,4.3,0.2,5.6c0.2,2.4,1,3.8,2.9,4.7
		c1.4,0.6,4.2,1.1,7.2,1.2c5.1,0.3,10.3,0.5,15.4,0.7c-0.1-0.8,0.1-1.7,0.7-2.4c-0.5-1.2-1.5-3.4-1.8-3.9c-0.3-0.8-2.2-3.9-3.4-5.8
		C21.6,14.2,18.6,9.6,13.3,5.2z"/>
</g>
</svg>
