<?xml version="1.0" encoding="UTF-8"?>
<svg viewBox="0 0 220 57" version="1.1" xmlns="http://www.w3.org/2000/svg" xmlns:xlink="http://www.w3.org/1999/xlink">
    <title>ulysses-wordmark</title>
    <g id="Cropped-Assets" stroke="none" stroke-width="1" fill="none" fill-rule="evenodd">
        <g id="ulysses-wordmark" fill="#FFCC00">
            <path d="M102.504415,28.2692356 C102.504415,33.4286081 100.40842,36.1695247 95.974887,36.1695247 C91.7425893,36.1695247 89.5259745,33.3076853 89.5259745,27.9870824 L89.5259745,11.7437269 L85.2936768,11.7437269 L85.2936768,28.1080052 C85.2936768,35.8870684 88.9213606,40.4015193 95.8942718,40.4015193 C102.907491,40.4015193 106.736712,36.0886064 106.736712,28.1886204 L106.736712,11.7437269 L102.504415,11.7437269 L102.504415,28.2692356 Z M113.186261,39.9580751 L117.337944,39.9580751 L117.337944,10.5747459 L113.186261,12.7513562 L113.186261,39.9580751 Z M133.420584,29.2365876 C132.77536,31.0504295 131.888593,34.0734993 131.525824,35.3230348 C131.284282,34.1541145 130.316899,31.010425 129.671978,29.1559725 L126.205524,18.797223 L121.651069,18.797223 L129.430132,39.5550295 L126.366755,47.4147079 L130.760283,47.4147079 L141.400882,18.797223 L137.007657,18.797223 L133.420584,29.2365876 Z M152.365064,27.0600683 C149.180764,25.8105328 148.45553,25.0446885 148.45553,23.996994 C148.45553,22.8680782 149.341994,22.0622293 151.357374,22.0622293 C153.372451,22.0622293 155.105678,22.6665402 156.838904,23.8757681 L158.652746,20.691771 C156.758289,19.3213127 154.138598,18.3539304 151.478297,18.3539304 C147.245999,18.3539304 144.26354,20.3290026 144.26354,24.1179168 C144.26354,27.4631443 145.916152,28.994833 150.470607,30.7680642 C153.533984,31.9372876 155.388134,32.7028289 155.388134,34.3151328 C155.388134,35.8065139 154.138598,36.6529734 151.518605,36.6529734 C149.543532,36.6529734 147.326614,35.9274366 145.351542,34.5569783 L143.457085,37.7009709 C145.593388,39.2729672 148.697073,40.4012769 151.558912,40.4012769 C155.710595,40.4012769 159.499206,38.8295837 159.499206,34.1539024 C159.499206,30.1637533 157.081053,28.8739102 152.365064,27.0600683 M171.793174,27.0600683 C168.608571,25.8105328 167.883337,25.0446885 167.883337,23.996994 C167.883337,22.8680782 168.770105,22.0622293 170.785181,22.0622293 C172.800561,22.0622293 174.533788,22.6665402 176.267015,23.8757681 L178.080553,20.691771 C176.186399,19.3213127 173.566709,18.3539304 170.906104,18.3539304 C166.67411,18.3539304 163.69165,20.3290026 163.69165,24.1179168 C163.69165,27.4631443 165.344262,28.994833 169.898414,30.7680642 C172.961792,31.9372876 174.816244,32.7028289 174.816244,34.3151328 C174.816244,35.8065139 173.566709,36.6529734 170.946715,36.6529734 C168.97134,36.6529734 166.754725,35.9274366 164.779652,34.5569783 L162.885195,37.7009709 C165.021498,39.2729672 168.12488,40.4012769 170.987022,40.4012769 C175.138402,40.4012769 178.927013,38.8295837 178.927013,34.1539024 C178.927013,30.1637533 176.509163,28.8739102 171.793174,27.0600683 M186.706682,27.4227761 C187.069451,24.037241 188.76237,22.1024763 191.543291,22.1024763 C194.969437,22.1024763 196.339592,24.5206291 196.541433,27.4227761 L186.706682,27.4227761 Z M191.825747,18.3538698 C186.343914,18.3538698 182.555,22.2233991 182.555,29.3978483 C182.555,36.4113703 186.74699,40.4015193 191.704521,40.4015193 C194.929129,40.4015193 197.145744,39.3938294 198.999893,37.6202951 L196.541433,34.9602968 C195.130667,36.0082943 193.719901,36.6532159 191.946367,36.6532159 C189.366681,36.6532159 187.069451,34.9199892 186.626067,30.8489218 L200.612197,30.8489218 C200.652808,30.4055383 200.73312,29.7206122 200.73312,28.9544648 C200.73312,23.230786 197.831276,18.3538698 191.825747,18.3538698 L191.825747,18.3538698 Z M212.865555,27.0600683 C209.681558,25.8105328 208.956021,25.0446885 208.956021,23.996994 C208.956021,22.8680782 209.842485,22.0622293 211.858168,22.0622293 C213.873245,22.0622293 215.606472,22.6665402 217.339699,23.8757681 L219.15354,20.691771 C217.259083,19.3213127 214.639393,18.3539304 211.978788,18.3539304 C207.746793,18.3539304 204.764031,20.3290026 204.764031,24.1179168 C204.764031,27.4631443 206.416643,28.994833 210.971401,30.7680642 C214.034476,31.9372876 215.888625,32.7028289 215.888625,34.3151328 C215.888625,35.8065139 214.639393,36.6529734 212.019096,36.6529734 C210.044023,36.6529734 207.827409,35.9274366 205.852336,34.5569783 L203.957879,37.7009709 C206.094182,39.2729672 209.197564,40.4012769 212.059706,40.4012769 C216.211086,40.4012769 220,38.8295837 220,34.1539024 C220,30.1637533 217.581544,28.8739102 212.865555,27.0600683 M26.8032237,29.1400283 L27.3585975,29.1447894 C27.501644,29.8439595 27.8989618,30.4476643 28.3914418,30.9401443 C27.4222411,31.3850432 26.3736374,33.4346694 25.6111268,36.0243567 C25.1344061,37.5178593 23.9906401,42.1568697 23.497857,44.8102007 C23.4502759,45.3981461 22.719587,48.9888559 21.9567733,50.5775208 C21.3373092,52.0234422 20.0820155,54.8989195 16.9998481,56.4084845 C15.4111832,57.1391733 14.1240677,56.8215616 13.9176807,56.7736774 C11.4549774,56.1381508 10.0569402,53.9457812 9.07198013,51.5943027 C8.37281,49.6083201 6.9268886,47.0980356 5.59249498,45.2393402 C4.71845656,43.8888842 0.667088437,39.9645001 1.52506444,36.6756426 C1.89056039,35.0869778 3.38406294,32.8943051 6.4819897,31.7981203 C11.5268221,29.9922867 20.2166313,29.1677004 26.2298656,29.1402069 L26.8032237,29.1400283 Z M34.9054829,29.16067 C40.9110118,29.081267 50.4120883,29.8916619 55.7820907,31.8140009 C58.8642581,32.8944263 60.3577606,35.0867959 60.7390159,36.6757639 C61.5969919,39.9643183 57.5456238,43.8887023 56.6718885,45.2391584 C55.3371918,47.0981569 53.8915734,49.6084413 53.1924033,51.5944239 C52.2074432,53.9459024 50.809103,56.138272 48.3467028,56.7737986 C48.1242533,56.8213797 46.8532002,57.1232321 45.248473,56.4083026 C42.1663056,54.8832814 40.9110118,52.007501 40.2915477,50.577642 C39.5447964,48.9886741 38.7980451,45.3979642 38.750464,44.8103219 C38.2576809,42.156991 37.1139149,37.5337399 36.6371942,36.0241749 C35.8746836,33.4344875 34.8260799,31.3851644 33.8726386,30.9560249 C34.3493593,30.4477855 34.7624364,29.8437777 34.9054829,29.16067 Z M31.1557853,32.4177966 C32.3316761,32.4177966 33.1260085,32.9739202 33.5709074,33.6252061 C33.920341,34.1495079 34.1746122,34.7532127 34.3334181,35.3729799 C34.6670922,36.7710171 34.6831547,38.2326978 34.5719299,39.6943786 C34.4288834,41.7755235 34.0476281,43.8569714 33.5072639,45.8747758 C33.4596827,46.0493411 32.9990245,47.7019525 32.6335285,48.4802225 C32.5859473,48.6075097 32.2522732,49.4018421 31.7437307,50.0055469 C31.3306536,50.4980269 30.9651576,50.4980269 30.5520805,50.0055469 C30.0596005,49.3860828 29.7419888,48.6075097 29.6625858,48.4802225 C29.2970899,47.7019525 28.8364316,46.0654035 28.7885474,45.8747758 C28.2484862,43.8569714 27.8672309,41.7915859 27.7241844,39.710138 C27.628719,38.2326978 27.708425,36.2624746 27.9623932,35.3729799 C28.1372615,34.7692751 28.3754703,34.1652673 28.7409662,33.6252061 C29.1858651,32.9739202 29.99626,32.4177966 31.1557853,32.4177966 Z M31.1559368,24.9663462 C32.1093782,24.9663462 32.7446017,25.6018728 33.0149353,26.1898182 C33.1895006,26.5392517 33.3801282,27.4129871 33.0149353,28.5409937 C32.8243077,29.1289391 32.3951682,29.7644656 32.0296722,30.0820774 C31.855107,30.2569457 31.489611,30.4636358 31.1559368,30.4636358 C30.8222627,30.4636358 30.5204103,30.3045268 30.2661391,30.0820774 C29.9167055,29.780225 29.487566,29.1446985 29.2969383,28.5409937 C28.9317454,27.4129871 29.1223731,26.5392517 29.2969383,26.1898182 C29.567272,25.6018728 30.2185579,24.9663462 31.1559368,24.9663462 Z M2.86642096,2.50756456e-05 L3.08208934,0.00642731619 C4.01946827,0.0858302521 4.90926606,0.371923273 5.76724205,0.705597443 C8.46815413,1.78602289 10.9941979,3.32710659 13.2662735,5.17004267 C18.6362759,9.61872853 21.5914592,14.2101578 22.5445975,15.6718386 C23.7680695,17.5308371 25.627068,20.7084699 25.9289204,21.4709805 C26.2625945,22.0113448 27.263314,24.1561332 27.7400347,25.3635428 C27.2157328,26.0466505 27.0251052,26.9206889 27.0887487,27.7626025 C21.9569552,27.6356184 16.8251616,27.3813471 11.693368,27.0952541 C8.69060358,26.9364483 5.84664499,26.4439682 4.46436716,25.8560228 C2.55778751,25.0141092 1.79527687,23.5681878 1.556765,21.1848875 C1.41402155,19.8662532 1.4616027,16.8634888 1.36613734,15.5448545 C1.22339389,13.2570195 0.460580191,9.52326317 0.0793248722,5.83739101 C-0.0476592124,4.58209727 -0.0476592124,3.31134723 0.269952531,2.08787527 C0.444820829,1.42052693 0.79425436,0.73741923 1.41402155,0.356163912 C1.78338158,0.129774625 2.21530552,0.0285131519 2.64944562,0.00532870686 L2.86642096,2.50756456e-05 Z M59.1978413,0.00660915497 C59.7700274,-0.0252126323 60.3737321,0.0541903036 60.8662122,0.356042686 C61.4856763,0.737298004 61.8354129,1.42040571 62.0102812,2.08775404 C62.3278929,3.311226 62.3278929,4.5822791 62.1848464,5.83726978 C61.7878317,9.52344501 61.0410805,13.2568983 60.898034,15.5447333 C60.8025686,16.8636706 60.8504528,19.8664351 60.7074063,21.1850693 C60.4688944,23.5680666 59.7063838,25.013988 57.7998041,25.8559016 C56.4175263,26.443847 53.5735677,26.936327 50.5708033,27.0951329 C45.4390097,27.3812259 40.3072161,27.6194347 35.1757256,27.7624812 C35.2551286,26.9205677 35.0484385,26.0465292 34.539896,25.3634215 C35.0326791,24.1717714 36.0333986,22.0269829 36.3513134,21.4708593 C36.6531657,20.7083487 38.5121643,17.5307159 39.7353331,15.6720204 C40.6887745,14.2103397 43.6436548,9.61860731 49.0139602,5.16992144 C51.2699734,3.32698536 53.7960172,1.78590166 56.5129917,0.705476217 C57.386727,0.371802047 58.2765248,0.0699496649 59.1978413,0.00660915497 Z M30.7112198,3.61304808 L30.7112198,13.9560381 C29.9644685,14.1466658 29.4241043,14.7982548 29.455926,15.5925872 C29.4716854,16.5299661 30.2344991,17.2767174 31.1400563,17.2767174 C32.0456134,17.2767174 32.8084271,16.5139037 32.8241865,15.5925872 C32.8389609,14.8479006 32.3652211,14.228672 31.7038769,13.997105 L31.5691958,13.9560381 L31.5691958,3.61304808 L33.3803101,3.61304808 C33.3362566,5.42565345 34.1263864,6.90196908 34.2901399,7.21318827 L34.317689,7.26740152 C35.1277808,8.98305045 36.1448657,10.6038402 36.5418804,12.4307138 C36.9391982,14.273953 36.7485705,16.3075167 35.8905945,18.0868092 C35.3662927,19.2466376 34.5877196,20.2794819 34.0791771,21.4550696 C34.0158366,21.5981161 33.6503407,22.3606268 33.6027595,23.6635017 C33.4436506,23.5522769 32.6972024,22.8373474 31.1400563,22.8373474 C29.5513914,22.8373474 28.8364619,23.5522769 28.677353,23.6635017 C28.6297718,22.2972863 28.2642759,21.6299379 28.2166947,21.4868914 C27.739974,20.3588848 26.9932228,19.3739247 26.4689209,18.2616775 C25.611248,16.5933067 25.3569768,14.6552083 25.6427667,12.8756127 C25.9764409,10.8578083 27.0886881,9.1103376 27.9466641,7.26740152 C27.992342,7.16062578 28.8725814,5.61878418 28.8868878,3.83694191 L28.8840431,3.61304808 L30.7112198,3.61304808 Z"></path>
        </g>
    </g>
</svg>