<?xml version="1.0" encoding="utf-8"?>
<svg viewBox="44.198 20.378 471.846 115.244" xmlns="http://www.w3.org/2000/svg">
  <g id="Page-1" stroke="none" stroke-width="1" fill="none" fill-rule="evenodd">
    <g id="wolframCorporateLogo">
      <g id="corporateSpikey" transform="matrix(1, 0, 0, 1, 44, 19.546917)" fill="#f73c2d">
        <path d="M93.93215,58.45772 L109.80159,40.653 L86.49928,35.57285 L88.87362,11.83973 L67.03462,21.42563 L54.99923,0.83117 L42.97208,21.42355 L21.13668,11.83148 L23.50587,35.5646 L0.201,40.64064 L16.06785,58.44949 L0.19841,76.25422 L23.50072,81.33437 L21.1269,105.06647 L42.96539,95.48057 L55.00026,116.075 L67.02741,95.48365 L88.86384,105.07465 L86.49516,81.34153 L109.79902,76.26553 L93.93215,58.45772 Z M101.63015,71.85172 L87.8839,67.1499 L78.76381,55.29633 L90.89493,59.80317 L101.63015,71.85172 Z M64.802,93.02285 L56.58091,107.09785 L56.58091,92.17285 L65.12646,79.70408 L64.802,93.02285 Z M50.40155,34.66753 L36.25554,29.637 L27.79154,18.20929 L42.62654,24.72573 L50.40155,34.66753 Z M67.38,24.72874 L82.21359,18.21654 L73.74459,29.63698 L59.60212,34.66611 L67.38,24.72874 Z M83.25407,36.24574 L75.87707,46.70683 L76.29527,31.50722 L84.88715,19.921 L83.25407,36.24574 Z M54.99976,88.88614 L45.10206,74.44477 L54.99974,61.01459 L64.89742,74.44477 L54.99976,88.88614 Z M37.39729,50.74967 L36.91552,33.22783 L53.41852,39.09632 L53.41852,56.14791 L37.39729,50.74967 Z M56.58092,39.09633 L73.08447,33.22784 L72.60219,50.74968 L56.58092,56.14792 L56.58092,39.09633 Z M26.75142,36.23939 L25.12186,19.9181 L33.70466,31.50627 L34.12241,46.70247 L26.75142,36.23939 Z M52.44114,59.1565 L42.54714,72.58166 L25.73869,67.62666 L36.41176,53.75549 L52.44114,59.1565 Z M44.871,79.70108 L53.4186,92.17287 L53.4186,107.10087 L45.1905,93.02017 L44.871,79.70108 Z M57.55835,59.1565 L73.58779,53.7555 L84.26133,67.62672 L67.45233,72.58172 L57.55835,59.1565 Z M103.83923,42.59035 L91.35258,56.59935 L76.62837,51.12911 L85.4738,38.58564 L103.83923,42.59035 Z M55.00023,7.1003 L64.47343,23.311 L55.00013,35.41458 L45.53326,23.30937 L55.00023,7.1003 Z M6.16335,42.578 L24.531,38.57872 L33.37173,51.12817 L18.64839,56.59133 L6.16335,42.578 Z M19.10442,59.79519 L31.23856,55.29273 L22.11719,67.14842 L8.36513,71.84376 L19.10442,59.79519 Z M9.06,74.94905 L23.11406,70.15063 L37.752,74.46529 L25.13969,78.45536 L9.06,74.94905 Z M26.68388,81.2829 L41.6323,76.55365 L42.0135,92.4438 L24.8122,99.99558 L26.68388,81.2829 Z M67.97918,92.44759 L68.36637,76.55441 L83.31165,81.28868 L85.17958,100.00174 L67.97918,92.44759 Z M84.85596,78.46114 L72.24449,74.46614 L86.8868,70.15026 L100.94325,74.9582 L84.85596,78.46114 Z" id="Shape"/>
      </g>
      <path d="M 169.384 54.78 L 181.331 54.78 L 186.957 85.825 L 195.244 54.78 L 205.75 54.78 L 215.587 86.367 L 221.342 54.78 L 232.696 54.78 L 222.983 101.23 L 209.873 101.23 L 201.158 72.25 L 192.241 101.23 L 178.488 101.23 L 169.384 54.78 Z M 516.044 101.23 L 504.095 101.23 L 498.48 70.076 L 490.183 101.23 L 479.675 101.23 L 469.877 69.652 L 464.086 101.23 L 452.73 101.23 L 462.443 54.78 L 475.551 54.78 L 484.267 83.785 L 493.191 54.78 L 506.939 54.78 L 516.044 101.23 Z M 257.721 53.977 C 272.839 53.977 280.727 63.099 280.727 78.005 C 280.727 92.777 272.708 102.023 257.721 102.023 C 242.737 102.023 234.72 92.777 234.72 78.005 C 234.72 63.099 242.606 53.977 257.721 53.977 Z M 257.721 92.842 C 265.15 92.842 268.103 85.654 268.103 78.005 C 268.103 69.946 265.15 63.162 257.721 63.162 C 250.292 63.162 247.337 69.946 247.337 78.005 C 247.337 85.654 250.292 92.842 257.721 92.842 Z M 287.562 54.774 L 299.79 54.774 L 299.79 92.042 L 318.717 92.042 L 318.717 101.22 L 287.562 101.22 L 287.562 54.774 Z M 323.777 54.774 L 354.46 54.774 L 354.46 63.561 L 336 63.561 L 336 73.746 L 353.674 73.746 L 353.674 82.524 L 336 82.524 L 336 101.22 L 323.777 101.22 L 323.777 54.774 Z M 360.853 54.774 L 382.673 54.774 C 390.825 54.774 397.464 58.5 397.464 66.49 C 397.464 72.681 394.569 76.804 388.655 78.201 L 388.655 78.336 C 392.595 79.403 392.862 82.93 395.163 88.586 L 399.628 101.22 L 386.88 101.22 L 384.254 92.842 C 381.751 84.858 380.178 82.859 375.643 82.859 L 373.075 82.859 L 373.075 101.22 L 360.853 101.22 L 360.853 54.774 Z M 373.075 74.078 L 376.301 74.078 C 380.241 74.078 385.237 73.943 385.237 68.684 C 385.237 64.361 380.966 63.561 376.301 63.561 L 373.075 63.561 L 373.075 74.078 Z M 418.146 54.774 L 433.136 54.774 L 450.814 101.22 L 437.407 101.22 L 433.989 91.311 L 416.772 91.311 L 413.154 101.22 L 400.731 101.22 L 418.146 54.774 Z M 425.643 64.361 L 425.515 64.361 L 419.599 82.524 L 431.095 82.524 L 425.643 64.361 Z" id="wolframText" style="fill: rgb(255, 255, 255);"/>
    </g>
  </g>
</svg>